<?xml version="1.0" encoding="UTF-8"?>
<svg xmlns="http://www.w3.org/2000/svg" xmlns:xlink="http://www.w3.org/1999/xlink" version="1.2" baseProfile="tiny"><defs/><path stroke="#58483e" transform="matrix(1.0666667 0 0 1.0666667 732.48 43.998665)" d="M 557.17 189.67 C 554.67 186.17 551.17 177.67 533.17 166.67 528.57 163.86 524.29 157.75 510.67 148.67 504.67 144.67 491.17 119.17 403.17 85.67 400.21 84.54 410.17 73.17 406.67 54.67 406.11 51.72 405.67 70.17 396.17 68.67 393.2 68.2 398.67 55.17 388.17 37.17 386.39 34.11 393.17 48.67 381.17 58.17 378.88 59.98 379.17 32.67 369.17 19.67 367.21 17.13 374.17 30.67 362.17 39.67 360.01 41.28 356.67 16.67 346.17 7.67 343.77 5.61 352.67 21.67 342.17 35.17 341.25 36.35 335.17 18.67 326.67 9.67 324.19 7.05 332.67 20.17 320.67 33.67 319.3 35.21 321.17 29.67 304.67 11.67 302.76 9.58 311.67 28.17 302.67 37.17 301.21 38.62 291.17 21.17 286.17 19.67 285.1 19.35 289.67 40.67 281.17 40.17 279.17 40.05 274.67 30.67 263.67 22.67 261.31 20.95 273.17 36.67 262.17 43.17 260.88 43.93 253.17 32.67 244.17 27.17 241.75 25.69 256.17 48.67 238.67 46.67 235.69 46.33 230.67 42.17 225.67 37.67 222.73 35.02 240.67 58.67 224.67 52.17 221.3 50.8 207.17 34.67 203.17 44.17 202.12 46.65 195.17 39.67 191.67 48.17 190.51 50.98 182.17 45.17 177.17 53.67 175.2 57.01 167.17 52.67 165.17 60.67 164.32 64.04 153.67 63.67 154.17 70.17 154.45 73.79 141.17 72.17 145.67 80.67 147.25 83.65 134.67 88.67 141.67 92.67 144.41 94.24 134.17 93.17 140.67 98.67 141.83 99.65 134.67 104.17 141.67 111.17 143.88 113.38 137.67 117.17 144.67 119.67 146.79 120.42 141.17 125.67 153.17 133.67 156.57 135.94 152.17 137.67 159.67 140.67 161.88 141.55 149.17 146.17 196.17 141.67 201.07 141.2 198.17 148.67 124.17 153.67 119.65 153.97 97.17 138.17 82.17 130.67 76.93 128.05 34.86 100.7 33.17 109.17 32.67 111.67 28.67 107.17 26.17 111.17 25.2 112.71 17.17 110.67 17.67 120.67 17.83 123.85 13.17 127.17 15.17 138.67 15.95 143.14 12.67 147.67 18.67 154.67 21.33 157.78 15.67 160.67 23.17 168.17 25.68 170.68 23.67 173.67 29.67 178.67 32.04 180.64 31.17 184.67 35.17 189.67 37.09 192.07 26.17 195.67 29.17 197.67 31.25 199.05 24.17 198.67 21.67 209.67 20.88 213.12 13.17 219.67 16.67 243.67 17.1 246.64 16.67 260.67 25.67 263.67 26.14 263.82 27.17 268.17 36.17 267.17 38.92 266.86 39.17 268.17 42.17 266.67 43.51 265.99 33.17 277.17 95.17 238.67 99.2 236.16 107.67 232.67 126.17 223.67 129.01 222.28 195.23 221.83 201.17 236.67 202.17 239.17 160.26 229.95 163.67 240.17 164.17 241.67 147.67 249.17 153.67 254.67 154.83 255.74 144.67 261.67 149.17 269.17 149.68 270.02 141.17 272.17 147.17 283.67 148.86 286.91 144.17 294.17 160.67 307.67 161.53 308.37 161.17 311.17 169.67 314.67 172.3 315.75 167.67 318.67 186.17 322.67 190.65 323.64 189.67 329.67 215.67 329.67 218.17 329.67 216.67 336.67 232.67 323.17 233.75 322.25 239.17 324.67 238.17 329.17 237.73 331.15 255.17 321.17 270.17 300.17 271.81 297.87 273.67 314.17 273.17 324.67 273.05 327.21 285.87 311.57 291.17 295.67 292.17 292.67 297.67 300.17 300.67 310.17 301.18 311.89 304.67 300.67 302.17 279.67 301.9 277.45 337.17 278.67 366.67 280.67 368.66 280.8 345.4 292.08 350.17 293.67 351.67 294.17 343.67 296.17 345.67 300.17 346.62 302.07 342.67 304.17 344.17 307.17 344.97 308.77 339.67 315.17 344.17 317.67 346.46 318.94 341.67 320.67 346.17 323.67 347.48 324.54 344.17 326.67 347.17 329.17 348.24 330.06 348.67 337.17 354.67 341.67 357.58 343.85 354.67 345.17 362.17 350.67 364.53 352.4 359.17 350.67 377.17 367.17 377.99 367.92 377.96 373.06 379.67 378.17 380.17 379.67 388.17 375.67 398.17 342.17 398.9 339.72 400.67 344.67 400.67 344.67 400.67 344.67 405.67 354.17 407.67 282.67 407.72 280.61 419.17 284.17 455.17 271.17 461.56 268.86 498.67 257.67 501.17 249.67 502.04 246.88 515.67 249.67 551.67 215.67 554.11 213.36 568.8 194.17 560.17 194.17 557.17 194.17 559.67 193.17 557.17 189.67 ZM 434.5 142 C 436.5 143 358 82.5 210.5 169.5 190.84 181.1 147 178.5 124.5 183.5 123.52 183.72 196 179.5 210 171.5 226.47 162.09 338.5 94 434.5 142 ZM 525.17 223 C 525.17 223 535.5 214.67 536.83 213.33 559.08 191.09 559.46 196.97 559.17 195.33 558.17 189.67 554.8 187.6 554.17 188 528.5 204.33 524 221.31 524.17 220.67 526.83 210.33 534.5 204 534.5 204 534.5 204 532.83 206.33 530.5 206 511.64 203.31 519.46 223.53 520.5 225 524.5 230.67 538.9 215.52 540.83 214.67 552.17 209.67 558.5 203 558.5 203 558.5 203 556.5 215 513 240.5 498.64 248.92 496 251.5 468 248.5 454.59 247.06 455 239 459.5 233.5 462.2 230.2 463 214.5 463 214.5 463 214.5 455.5 251 506 239.5 510.49 238.48 463.5 246 467 178 467.13 175.45 460.5 252 446.5 242 444.03 240.23 431.5 236.5 427.5 225.5 426.96 224.01 414.57 210.83 410 188 409.5 185.5 452.5 230 452.5 230 452.5 230 410 187.52 410 182 410 179.5 389.69 177.77 407 157 409.5 154 413 155 422 158 425.57 159.19 442 142.5 466.5 155M 521.83 190 C 537.83 168.67 509.83 158.33 507.5 158.33 486.83 158.33 492.83 168.67 491.5 165.67 490.64 163.73 496.25 157.47 495.17 158 483.5 163.67 484.11 175.34 484.5 177.33 489.83 204.33 516.17 196.67 519.5 195 525.29 192.11 540.5 171.33 510.17 155 501.13 150.13 465.17 156.67 488.17 193.33 488.56 193.96 502.17 203 517.17 199.33M 532.5 172.33 C 531.17 175.67 533.17 177.49 533.17 179.67 533.17 181.67 560.17 189 539.5 174 537.83 172.79 533.31 170.32 532.5 172.33 ZM 410.83 244.67 C 410.83 244.67 389.83 252.67 351.83 241.33 349.1 240.52 347.5 241 344.83 237.33 343.65 235.7 334.5 234 314.83 206 312.94 203.3 307.17 200.33 306.83 192 306.67 187.97 295.5 185.33 306.83 171.67 310.08 167.75 315.83 163.33 325.17 164.67 326.49 164.86 325.5 154.67 417.83 214 418.96 214.72 401.17 220 408.83 239.33 409.82 241.81 402.5 232 406.83 219.33M 406 283 C 400.48 283 393.47 283.71 384 281 380.5 280 371.5 281 371.5 281 L 387 284 C 387 284 362.5 285 349 297 346.82 298.94 375.5 286.5 384 286.5 386.06 286.5 365 295.5 346.5 315.5 344.8 317.34 386.95 289.44 390 287 392.5 285 380 298.5 352 332.5 350.41 334.43 369 320 396.5 287 397.86 285.37 375 320.5 364 349.5 363.44 350.98 373 345.5 397.5 289.5 398.4 287.45 394 306.5 378 367.5 377.72 368.58 389 364 401.5 286.5 401.9 284.03 399.27 328.37 401 340.5 401.5 344 406.5 283 406 283 ZM 401.67 84.83 C 401.67 84.83 406.67 71.83 406.67 56.5 406.67 53.75 403.67 75.83 398 81.17 397.46 81.68 395.67 80.5 394.67 79.17 394.08 78.39 397 51.17 389.33 41.83 388.73 41.1 392.33 73.17 389.67 77.5M 382 81.5 C 382 81.5 379 33.17 370.33 23.17 369.06 21.7 379 53.17 376 78.5 375.84 79.82 370 77.17 368.33 73.5 367.39 71.42 358.33 19.5 347 9.5 345.1 7.82 365 49.17 360.33 76.17 360.22 76.82 355.26 73.8 353.67 72.83 352.08 71.86 343.67 31.5 328 12.5 326.66 10.87 351.83 67.51 345.67 79.83 345.33 80.5 340.67 78.83 337 72.17 335.61 69.63 319.33 26.83 306 14.5 305.12 13.68 324.67 41.5 331.67 79.17 331.73 79.49 323.51 79.21 322.33 74.5 322 73.17 303 34.5 288 21.83 286.06 20.2 305 45.83 314.67 78.5 314.8 78.95 309.33 80.5 304 77.17 301.72 75.74 282.33 36.83 265.33 24.83 261.48 22.11 281.33 41.83 297.67 81.5 297.92 82.12 290.67 82.83 288.33 82.83 285.98 82.83 271 45.83 245.33 29.5 244.44 28.93 266 52.83 279.33 82.83 279.64 83.51 274.33 87.17 270 85.17 267.82 84.16 248.33 51.83 228.67 41.83 223.72 39.32 248 58.5 262.67 88.83 263.28 90.11 258.33 91.83 255.33 89.17 253.96 87.95 223.67 54.83 208 43.5 206.65 42.52 241.33 75.17 250 95.5 250.47 96.61 247.33 94.5 245.67 92.5 244.82 91.49 222.67 65.5 197 47.83 194.91 46.39 245.33 90.5 241.33 97.83 240.68 99.04 198.33 58.83 181 52.17 179.44 51.57 216.33 76.83 234 100.17 234.57 100.92 229.67 101.17 226 98.17 224.4 96.86 185 61.83 173.33 60.5 172.59 60.42 187.33 65.5 226 104.17 227.51 105.68 221.67 106.5 216 100.83 214.14 98.97 180.67 74.5 159.33 67.17 157.42 66.51 206.33 94.83 217 107.83 222.53 114.58 215.33 110.5 212 107.83 211.02 107.05 182.33 89.5 148.33 75.17 147.23 74.7 198.33 100.17 214.67 115.83 215.87 116.99 209.89 115.81 208.33 115.5 206.78 115.19 182.67 101.5 143 88.5 141.07 87.87 187.33 106.17 201.67 118.5 203.2 119.82 158.67 104.5 145.33 103.17 143.55 102.99 200.67 118.5 196 122.83 191.33 127.17 161.67 119.83 159 119.83 156.33 119.83 194 127.5 191.33 128.5 188.67 129.5 178.67 130.17 159.33 129.17 151.34 128.75 184.35 132.18 191 134.83 192.67 135.5 191.67 137.83 191.67 137.83 191.67 137.83 160 135.83 156 135.17 154.81 134.97 198 139.5 198 139.5 198 139.5 211 117.5 240.33 106.17 243.05 105.12 242 99 249.5 100.5 252.14 101.03 250.5 95 257 96.5M 300.67 306.17 C 300.67 306.17 300.17 290.17 297.67 278.17 297.26 276.21 284.67 316.67 274.67 320.67 272.3 321.61 283.67 312.67 291.67 276.17 292.31 273.24 286.67 273.67 283.17 274.67 281.09 275.26 279.67 298.67 240.17 326.67 238.13 328.11 274.17 290.17 274.67 277.67 274.77 275.17 270.17 273.67 266.17 277.17 265.03 278.16 229.5 322.5 216.5 325.5 213.66 326.16 231.5 313.5 261 272.5 262.7 270.13 231 303.5 201 322 199.72 322.79 217 307 253.5 268.5 254.27 267.69 218.5 299 187.5 316.5 184.58 318.15 219 289 243.5 266.5 246.38 263.86 192.48 304.21 173 312 170.5 313 226.5 278.5 235.5 263.5 236.79 261.36 184.5 300 162 303.5 158.4 304.06 221 272 225 260 226.27 256.18 173.01 290.33 153.5 292.5 149 293 204 270 215.5 257.5 217.64 255.17 185 276.5 151 279 147.97 279.22 198 264 210.5 252.5 212.34 250.81 166.98 265.5 152 265.5 151 265.5 199.5 251.5 205.5 245 206.9 243.49 180 253.5 158 253 154.96 252.93 188 249.5 200 241 201.68 239.81 176 243.5 165.5 241.5 165.01 241.41 195.5 239 195.5 239 L 169.5 236.5M 107.33 151.33 C 107.33 151.33 58.33 115.33 37.33 109 34.76 108.22 54 115.33 103 150 104.96 151.39 66 126.67 29.67 112.33 27.86 111.62 75 134.67 98.33 152.33 98.93 152.78 48 124.67 23.33 118 22.17 117.69 65 136 93 154 94.4 154.9 41.67 132 18 127 17.27 126.85 81 151.67 90.33 158.67 91.77 159.74 45.33 143 18.33 140 16.01 139.74 69.67 156 81.67 161.67 84.38 162.95 41 153.33 22.33 153.67 20.67 153.7 79 166.33 90.33 170.67 91.21 171 40.64 165.33 24 165.33 23.33 165.33 82.67 174.67 89.67 176.67 91.69 177.25 48.32 177.75 29 175.33 27.35 175.13 58 179.67 69.67 180.33 81.33 181 86.32 183.9 91.67 184.67 107.35 186.91 68 185 37.67 187 35.31 187.16 69 192 95.33 192 95.8 192 93.67 193.67 93.67 193.67 93.67 193.67 48 195.67 33 198.33 30.37 198.8 74.67 197.33 90.67 198.67 93.67 198.92 74.33 202 68 204.33 62.52 206.35 42.67 206.67 25 211 23.55 211.36 58.33 209.33 78.67 206.67 80.03 206.49 86 207 89.67 205.67 92.26 204.72 70.06 211.99 63.33 213.33 61.67 213.67 46.33 217.33 17 226.67 15.69 227.08 51.67 222 64 217.33 75.2 213.09 85 213.33 93.67 211 94.58 210.75 75 217 68.67 220.67 62.21 224.41 59.67 224 19.67 241.33 18.41 241.88 52 231.67 67 225.67 69.36 224.72 80.67 220.67 92.33 217 93.64 216.59 72.67 229.33 65 234.67 62.92 236.12 59.33 236.67 25.67 254.33 24.16 255.12 83 229 94.33 224 95.25 223.6 30.67 264.33 30.67 264.33 L 100 226 46 264.33 102 228.67 C 102 228.67 104.25 229.92 105 230.33 105.75 230.75 66.67 257 45.33 266.33"/></svg>