<?xml version="1.0" encoding="UTF-8"?>
<svg xmlns="http://www.w3.org/2000/svg" xmlns:xlink="http://www.w3.org/1999/xlink" version="1.2" baseProfile="tiny"><defs/><g><g><path fill="#fdca8d" transform="scale(1.0666667)" d="M 557 189.5 C 554.5 186 551 177.5 533 166.5 528.4 163.69 524.13 157.59 510.5 148.5 504.5 144.5 491 119 403 85.5 400.04 84.37 410 73 406.5 54.5 405.94 51.55 405.5 70 396 68.5 393.04 68.03 398.5 55 388 37 386.22 33.95 393 48.5 381 58 378.71 59.81 379 32.5 369 19.5 367.05 16.96 374 30.5 362 39.5 359.85 41.12 356.5 16.5 346 7.5 343.6 5.44 352.5 21.5 342 35 341.08 36.18 335 18.5 326.5 9.5 324.02 6.88 332.5 20 320.5 33.5 319.13 35.04 321 29.5 304.5 11.5 302.59 9.42 311.5 28 302.5 37 301.04 38.46 291 21 286 19.5 284.93 19.18 289.5 40.5 281 40 279 39.88 274.5 30.5 263.5 22.5 261.14 20.79 273 36.5 262 43 260.71 43.76 253 32.5 244 27 241.59 25.53 256 48.5 238.5 46.5 235.52 46.16 230.5 42 225.5 37.5 222.56 34.86 240.5 58.5 224.5 52 221.13 50.63 207 34.5 203 44 201.96 46.48 195 39.5 191.5 48 190.34 50.81 182 45 177 53.5 175.03 56.84 167 52.5 165 60.5 164.16 63.87 153.5 63.5 154 70 154.28 73.62 141 72 145.5 80.5 147.08 83.48 134.5 88.5 141.5 92.5 144.25 94.07 134 93 140.5 98.5 141.66 99.48 134.5 104 141.5 111 143.72 113.22 137.5 117 144.5 119.5 146.62 120.26 141 125.5 153 133.5 156.41 135.77 152 137.5 159.5 140.5 161.72 141.39 149 146 196 141.5 200.9 141.03 198 148.5 124 153.5 119.48 153.81 97 138 82 130.5 76.77 127.88 34.69 100.54 33 109 32.5 111.5 28.5 107 26 111 25.04 112.54 17 110.5 17.5 120.5 17.66 123.68 13 127 15 138.5 15.78 142.98 12.5 147.5 18.5 154.5 21.16 157.61 15.5 160.5 23 168 25.52 170.52 23.5 173.5 29.5 178.5 31.87 180.48 31 184.5 35 189.5 36.92 191.9 26 195.5 29 197.5 31.08 198.89 24 198.5 21.5 209.5 20.72 212.95 13 219.5 16.5 243.5 16.93 246.47 16.5 260.5 25.5 263.5 25.97 263.66 27 268 36 267 38.75 266.69 39 268 42 266.5 43.35 265.83 33 277 95 238.5 99.03 236 107.5 232.5 126 223.5 128.84 222.12 195.07 221.67 201 236.5 202 239 160.09 229.78 163.5 240 164 241.5 147.5 249 153.5 254.5 154.67 255.57 144.5 261.5 149 269 149.51 269.86 141 272 147 283.5 148.69 286.74 144 294 160.5 307.5 161.37 308.21 161 311 169.5 314.5 172.14 315.59 167.5 318.5 186 322.5 190.48 323.47 189.5 329.5 215.5 329.5 218 329.5 216.5 336.5 232.5 323 233.58 322.09 239 324.5 238 329 237.56 330.99 255 321 270 300 271.64 297.7 273.5 314 273 324.5 272.88 327.05 285.7 311.4 291 295.5 292 292.5 297.5 300 300.5 310 301.02 311.73 304.5 300.5 302 279.5 301.74 277.28 337 278.5 366.5 280.5 368.5 280.64 345.23 291.91 350 293.5 351.5 294 343.5 296 345.5 300 346.45 301.9 342.5 304 344 307 344.8 308.6 339.5 315 344 317.5 346.29 318.77 341.5 320.5 346 323.5 347.32 324.38 344 326.5 347 329 348.07 329.89 348.5 337 354.5 341.5 357.42 343.69 354.5 345 362 350.5 364.36 352.23 359 350.5 377 367 377.82 367.76 377.8 372.89 379.5 378 380 379.5 388 375.5 398 342 398.73 339.56 400.5 344.5 400.5 344.5 400.5 344.5 405.5 354 407.5 282.5 407.56 280.44 419 284 455 271 461.4 268.69 498.5 257.5 501 249.5 501.87 246.72 515.5 249.5 551.5 215.5 553.94 213.2 568.63 194 560 194 557 194 559.5 193 557 189.5 ZM 559 195.17 C 558 189.5 554.63 187.43 554 187.83M 532.33 172.17 C 531 175.5 533 177.32 533 179.5 533 181.5 560 188.83 539.33 173.83 537.66 172.62 533.14 170.15 532.33 172.17 ZM 405.83 282.83 C 400.31 282.83 393.3 283.54 383.83 280.83 380.33 279.83 371.33 280.83 371.33 280.83 L 386.83 283.83 C 386.83 283.83 362.33 284.83 348.83 296.83 346.65 298.77 375.33 286.33 383.83 286.33 385.89 286.33 364.83 295.33 346.33 315.33 344.64 317.17 386.78 289.27 389.83 286.83 392.33 284.83 379.83 298.33 351.83 332.33 350.24 334.26 368.83 319.83 396.33 286.83 397.69 285.2 374.83 320.33 363.83 349.33 363.27 350.81 372.83 345.33 397.33 289.33 398.23 287.28 393.83 306.33 377.83 367.33 377.55 368.41 388.83 363.83 401.33 286.33 401.73 283.87 399.1 328.2 400.83 340.33 401.33 343.83 406.33 282.83 405.83 282.83 ZM 401.5 84.67 C 401.5 84.67 406.5 71.67 406.5 56.33 406.5 53.58 403.5 75.67 397.83 81 397.29 81.51 395.5 80.33 394.5 79 393.92 78.22 396.83 51 389.17 41.67 388.57 40.94 392.17 73 389.5 77.33M 381.83 81.33 C 381.83 81.33 378.83 33 370.17 23 368.89 21.53 378.83 53 375.83 78.33 375.68 79.66 369.83 77 368.17 73.33 367.22 71.25 358.17 19.33 346.83 9.33 344.93 7.65 364.83 49 360.17 76 360.05 76.66 355.09 73.64 353.5 72.67 351.91 71.7 343.5 31.33 327.83 12.33 326.49 10.71 351.66 67.34 345.5 79.67 345.17 80.33 340.5 78.67 336.83 72 335.44 69.47 319.17 26.67 305.83 14.33 304.95 13.52 324.5 41.33 331.5 79 331.56 79.33 323.34 79.04 322.17 74.33 321.83 73 302.83 34.33 287.83 21.67 285.89 20.03 304.83 45.67 314.5 78.33 314.63 78.79 309.17 80.33 303.83 77 301.55 75.58 282.17 36.67 265.17 24.67 261.32 21.95 281.17 41.67 297.5 81.33 297.75 81.95 290.5 82.67 288.17 82.67 285.81 82.67 270.83 45.67 245.17 29.33 244.28 28.77 265.83 52.67 279.17 82.67 279.47 83.35 274.17 87 269.83 85 267.65 83.99 248.17 51.67 228.5 41.67 223.55 39.15 247.83 58.33 262.5 88.67 263.12 89.94 258.17 91.67 255.17 89 253.8 87.78 223.5 54.67 207.83 43.33 206.48 42.36 241.17 75 249.83 95.33 250.3 96.44 247.17 94.33 245.5 92.33 244.66 91.32 222.5 65.33 196.83 47.67 194.74 46.23 245.17 90.33 241.17 97.67 240.51 98.87 198.17 58.67 180.83 52 179.28 51.4 216.17 76.67 233.83 100 234.4 100.75 229.5 101 225.83 98 224.24 96.69 184.83 61.67 173.17 60.33 172.43 60.25 187.17 65.33 225.83 104 227.34 105.51 221.5 106.33 215.83 100.67 213.97 98.8 180.5 74.33 159.17 67 157.25 66.34 206.17 94.67 216.83 107.67 222.37 114.41 215.17 110.33 211.83 107.67 210.86 106.89 182.17 89.33 148.17 75 147.06 74.53 198.17 100 214.5 115.67 215.7 116.82 209.72 115.64 208.17 115.33 206.61 115.03 182.5 101.33 142.83 88.33 140.91 87.7 187.17 106 201.5 118.33 203.04 119.66 158.5 104.33 145.17 103 143.38 102.82 200.5 118.33 195.83 122.67 191.17 127 161.5 119.67 158.83 119.67 156.17 119.67 193.83 127.33 191.17 128.33 188.5 129.33 178.5 130 159.17 129 151.18 128.59 184.19 132.01 190.83 134.67 192.5 135.33 191.5 137.67 191.5 137.67 191.5 137.67 159.83 135.67 155.83 135 154.65 134.8 197.83 139.33 197.83 139.33 197.83 139.33 210.83 117.33 240.17 106 242.88 104.95 241.83 98.83 249.33 100.33 251.98 100.86 250.33 94.83 256.83 96.33M 302 302 C 302 302 300 290 297.5 278 297.09 276.04 288 307 274.5 320.5 272.7 322.3 302 302 302 302 Z"/><path fill="#e1602d" transform="scale(1.0666667)" d="M 493 177.5 C 493 184.38 498.63 190 505.5 190 512.38 190 518 184.38 518 177.5 518 170.63 512.38 165 505.5 165 498.63 165 493 170.63 493 177.5 ZM 387.5 284.5 C 337 294 354 299.5 352.5 302.5 339.8 327.9 366 344 368 344.5 403.73 353.43 394 324.5 397.5 323 397.96 322.8 402 344 402 344 402 344 405.5 354 407.5 282.5 407.56 280.44 419 284 455 271 461.4 268.69 498.5 257.5 501 249.5 501.87 246.72 515.5 249.5 551.5 215.5 553.94 213.2 568.63 194 560 194 557 194 559.5 193 557 189.5 554.5 186 551 177.5 533 166.5 528.4 163.69 524.13 157.59 510.5 148.5 504.5 144.5 491 119 403 85.5 400.04 84.37 336 70 258.5 91.5 256.76 91.98 217 40 209 44 206.59 45.2 201 40.5 197.5 49 196.34 51.81 188 46 183 54.5 181.03 57.84 173 53.5 171 61.5 170.16 64.87 159.5 64.5 160 71 160.28 74.62 147 73 151.5 81.5 153.08 84.48 140.5 89.5 147.5 93.5 150.25 95.07 140 94 146.5 99.5 147.66 100.48 140.5 105 147.5 112 149.72 114.22 143.5 118 150.5 120.5 152.62 121.26 147 126.5 159 134.5 162.41 136.77 156.02 140.23 164 139 170.5 138 149 146 196 141.5 200.9 141.03 198 148.5 124 153.5 119.48 153.81 97 138 82 130.5 76.77 127.88 79.53 129.66 68 120.5 34 93.5 13.5 148 38.5 172 52.04 185 45.99 196.98 41.5 200.5 16 220.5 27.22 268.82 50.5 263 52.5 262.5 71.5 252 95.5 237 99.52 234.49 107.5 232.5 126 223.5 128.84 222.12 195.07 221.67 201 236.5 202 239 166.09 229.28 169.5 239.5 170 241 156 247.5 156.5 266.5 156.54 268.08 146.31 275.41 156.5 289 158 291 168.68 314.78 218 323 221 323.5 217.5 339 264.5 289.5 268.51 285.27 270 293.5 243 323 240.28 325.97 270.28 300.29 277.5 291 281 286.5 284.72 298.66 285 300.5 285.28 302.34 302 283 302 279.5 302 277.26 337 278.5 366.5 280.5 368.5 280.64 390.94 283.85 387.5 284.5 Z"/><path fill="#f8a758" transform="scale(1.0666667)" d="M 367 279.5 C 337.5 277.5 301.74 276.78 302 279 304.5 300 300.17 306.67 300.17 306.67 300.17 306.67 299.67 290.67 297.17 278.67 296.76 276.71 284.17 317.17 274.17 321.17 271.8 322.11 283.17 313.17 291.17 276.67 291.81 273.74 286.17 274.17 282.67 275.17 280.59 275.76 279.17 299.17 239.67 327.17 237.63 328.61 273.67 290.67 274.17 278.17 274.27 275.67 269.67 274.17 265.67 277.67 264.53 278.66 229 323 216 326 213.16 326.66 231 314 260.5 273 262.2 270.63 230.5 304 200.5 322.5 199.22 323.29 216.5 307.5 253 269 253.77 268.19 218 299.5 187 317 184.08 318.65 218.5 289.5 243 267 245.88 264.36 191.98 304.71 172.5 312.5 170 313.5 226 279 235 264 236.29 261.86 184 300.5 161.5 304 157.9 304.56 220.5 272.5 224.5 260.5 225.77 256.68 172.51 290.83 153 293 148.5 293.5 203.5 270.5 215 258 217.14 255.67 184.5 277 150.5 279.5 147.47 279.72 197.5 264.5 210 253 211.84 251.31 166.48 266 151.5 266 150.5 266 199 252 205 245.5 206.4 243.99 179.5 254 157.5 253.5 154.46 253.43 187.5 250 199.5 241.5 201.18 240.31 175.5 244 165 242 164.51 241.91 195 239.5 195 239.5 195 239.5 202 238.5 201 236 195.07 221.17 128.84 221.62 126 223 107.5 232 99.03 235.5 95 238 33 276.5 105.25 231.92 104.5 231.5 103.75 231.08 101.5 229.17 101.5 229.17 L 45.5 264.83 99.5 226.5 30.17 264.83 C 30.17 264.83 94.75 224.1 93.83 224.5 82.5 229.5 23.66 255.62 25.17 254.83 58.83 237.17 62.42 236.62 64.5 235.17 72.17 229.83 93.14 217.09 91.83 217.5 80.17 221.17 68.86 225.22 66.5 226.17 51.5 232.17 17.91 242.38 19.17 241.83 59.17 224.5 61.71 224.91 68.17 221.17 74.5 217.5 94.08 211.25 93.17 211.5 84.5 213.83 74.7 213.59 63.5 217.83 51.17 222.5 15.19 227.58 16.5 227.17 45.83 217.83 61.17 214.17 62.83 213.83 69.56 212.49 91.76 205.22 89.17 206.17 85.5 207.5 79.53 206.99 78.17 207.17 57.83 209.83 23.05 211.86 24.5 211.5 42.17 207.17 62.02 206.85 67.5 204.83 73.83 202.5 93.17 199.42 90.17 199.17 74.17 197.83 29.87 199.3 32.5 198.83 47.5 196.17 93.17 194.17 93.17 194.17 93.17 194.17 95.3 192.5 94.83 192.5 68.5 192.5 34.81 187.66 37.17 187.5 67.5 185.5 106.85 187.41 91.17 185.17 85.82 184.4 80.83 181.5 69.17 180.83 57.5 180.17 26.85 175.63 28.5 175.83 47.82 178.25 91.19 177.75 89.17 177.17 82.17 175.17 22.83 165.83 23.5 165.83 40.14 165.83 90.71 171.5 89.83 171.17 78.5 166.83 20.17 154.2 21.83 154.17 40.5 153.83 83.88 163.45 81.17 162.17 69.17 156.5 15.51 140.24 17.83 140.5 44.83 143.5 91.27 160.24 89.83 159.17 80.5 152.17 16.77 127.35 17.5 127.5 41.17 132.5 93.9 155.4 92.5 154.5 64.5 136.5 21.67 118.19 22.83 118.5 47.5 125.17 98.43 153.28 97.83 152.83 74.5 135.17 27.36 112.12 29.17 112.83 65.5 127.17 104.46 151.89 102.5 150.5 53.5 115.83 34.26 108.72 36.83 109.5 57.83 115.83 106.83 151.83 106.83 151.83 106.83 151.83 76.77 127.38 82 130 97 137.5 119.48 153.31 124 153 198 148 200.9 140.53 196 141 149 145.5 161.72 140.89 159.5 140 152 137 191.33 136.83 191.33 136.83 191.33 136.83 192.33 134.5 190.67 133.83 184.02 131.18 151.01 127.75 159 128.17 178.33 129.17 188.33 128.5 191 127.5 193.67 126.5 156 118.83 158.67 118.83 161.33 118.83 191 126.17 195.67 121.83 200.33 117.5 143.21 101.99 145 102.17 158.33 103.5 202.87 118.82 201.33 117.5 187 105.17 140.74 86.87 142.67 87.5 182.33 100.5 206.44 114.19 208 114.5 209.56 114.81 215.54 115.99 214.33 114.83 198 99.17 146.89 73.7 148 74.17 182 88.5 210.69 106.05 211.67 106.83 215 109.5 222.2 113.58 216.67 106.83 206 93.83 157.08 65.51 159 66.17 180.33 73.5 213.8 97.97 215.67 99.83 221.33 105.5 227.18 104.68 225.67 103.17 187 64.5 172.26 59.42 173 59.5 184.67 60.83 224.07 95.86 225.67 97.17 229.33 100.17 234.24 99.92 233.67 99.17 216 75.83 179.11 50.57 180.67 51.17 198 57.83 240.34 98.04 241 96.83 245 89.5 194.58 45.39 196.67 46.83 222.33 64.5 244.49 90.49 245.33 91.5 247 93.5 250.14 95.61 249.67 94.5 241 74.17 206.32 41.52 207.67 42.5 223.33 53.83 253.63 86.95 255 88.17 258 90.83 262.95 89.11 262.33 87.83 247.67 57.5 223.39 38.32 228.33 40.83 248 50.83 267.48 83.16 269.67 84.17 274 86.17 279.3 82.51 279 81.83 265.67 51.83 244.11 27.93 245 28.5 270.67 44.83 285.64 81.83 288 81.83 290.33 81.83 297.59 81.12 297.33 80.5 281 40.83 261.15 21.11 265 23.83 282 35.83 301.39 74.74 303.67 76.17 309 79.5 314.47 77.95 314.33 77.5 304.67 44.83 285.73 19.2 287.67 20.83 302.67 33.5 321.67 72.17 322 73.5 323.18 78.21 331.39 78.49 331.33 78.17 324.33 40.5 304.78 12.68 305.67 13.5 319 25.83 335.27 68.63 336.67 71.17 340.33 77.83 345 79.5 345.33 78.83 351.5 66.51 326.33 9.87 327.67 11.5 343.33 30.5 351.74 70.86 353.33 71.83 354.92 72.8 359.89 75.82 360 75.17 364.67 48.17 344.76 6.82 346.67 8.5 358 18.5 367.05 70.42 368 72.5 369.67 76.17 375.51 78.82 375.67 77.5 378.67 52.17 368.73 20.7 370 22.17 378.67 32.17 381.67 80.5 381.67 80.5 381.67 80.5 388.29 78.2 389.33 76.5 392 72.17 388.4 40.1 389 40.83 396.67 50.17 393.75 77.39 394.33 78.17 395.33 79.5 397.12 80.68 397.67 80.17 403.33 74.83 406.33 52.75 406.33 55.5 406.33 70.83 401.33 83.83 401.33 83.83 401.33 83.83 400.04 83.87 403 85 491 118.5 504.5 144 510.5 148 524.13 157.09 528.4 163.19 533 166 551 177 554.5 185.5 557 189 559.5 192.5 557 193.5 560 193.5 568.63 193.5 553.94 212.7 551.5 215 515.5 249 501.87 246.22 501 249 498.5 257 461.4 268.19 455 270.5 419 283.5 407.62 279.94 407.5 282 405.5 317.5 401.5 332 401.5 332 401.5 332 401.4 284.53 401 287 388.5 364.5 377.22 369.08 377.5 368 393.5 307 397.9 287.95 397 290 372.5 346 362.94 351.48 363.5 350 374.5 321 397.36 285.87 396 287.5 368.5 320.5 349.91 334.93 351.5 333 379.5 299 392 285.5 389.5 287.5 386.45 289.94 344.3 317.84 346 316 364.5 296 385.56 287 383.5 287 375 287 346.32 299.44 348.5 297.5 362 285.5 386.5 284.5 386.5 284.5 L 371 281.5 C 371 281.5 380.5 280 384 281M 489 176 C 489 182.88 497.13 189.5 504 189.5 510.88 189.5 518.5 182.88 518.5 176 518.5 169.13 512.88 162 506 162 499.13 162 489 169.13 489 176 Z"/><path fill="#aa8a8c" transform="scale(1.0666667)" d="M 133.67 211.33 C 133.67 217 137 218.33 137 218.33 137 218.33 139.67 216 139 215.67 134.7 213.52 134.88 210.23 135 208.67 135.33 204.33 137.64 201.77 138.33 203.67 139.67 207.33 143.48 211.96 143.33 210 143 205.67 144.52 201 145 202.33 146.33 206 147.67 207.33 147.67 207.33 L 147 212.33 C 147 212.33 149.94 206.84 150.33 209 151 212.67 156.75 217.5 155.67 216 153 212.33 155.58 207.51 156.67 208.67 157.76 209.83 161.67 214 161 213.33 155.66 207.99 159.78 197.45 160.67 199.67 162.67 204.67 165.18 206.44 165.33 208 165.67 211.33 167.68 216.4 168 214.33 168.67 210 170.78 205.69 171.33 207.33 172.33 210.33 175.33 213 175.33 213 175.33 213 178.67 221 177.67 218.33 175.25 211.9 180 206.33 180 207.67 180 209 183.21 210.27 182.67 212.33 181 218.67 189.33 223.33 190.33 227 191.33 230.67 189.84 225.53 189 223 187.67 219 191.67 209.87 191.67 212.67 191.67 217.67 196 223.64 196 222 196 219 197.84 216.22 198.67 216 199.5 215.78 201.35 215.28 201.67 217.67 203 227.67 207.31 223.15 207 225.67 206 233.67 210.84 236.76 211 235 211.33 231.33 213.24 225.07 213.33 228.33 213.67 240 218.03 235.3 217.67 238 216.67 245.33 222.13 249.86 222 248 221.67 243.33 225.42 240.59 225.33 241.33 224.67 247.33 229 252 229 252 229 252 231.18 245.29 231 246.33 229.33 256 239.4 260.93 239 259.33 238 255.33 241.59 251.87 242.33 253.67 244 257.67 246.89 261.21 247.33 259.67 248 257.33 250.33 254 250.33 254 250.33 254 255.89 261.39 255.67 258.67 255.33 254.67 258 245.46 258 248 258 252.67 262 257.33 262 257.33 262 257.33 264.48 247.95 265.33 250 267 254 270.33 257.33 270.33 257.33 270.33 257.33 274.12 254.17 274.33 255.33 275 259 277.19 256.84 277.33 259 277.67 264 281.67 268.33 280.67 267 275.29 259.82 282.6 253.4 283 254.33 284 256.67 285.16 255.89 285.33 257.67 285.67 261 289.09 264.51 288.67 264 283.67 258 289.46 250.99 289.67 252.67 290 255.33 292.33 256.25 293 257.33 293.67 258.41 297.18 264.02 295.67 261.67 292.67 257 297.43 249.04 297.67 250.67 298.33 255.33 301.29 253.25 301 256.33 300 267 305 265.33 305 267.33 305 273.04 310.68 276.38 308.67 274 305 269.67 309.58 259.79 310 261.33 311 265 312.88 264.56 313.33 266.67 314.33 271.33 318.61 274.74 317 273.33 311.67 268.67 317.19 260.03 318 261.33 319.67 264 321.86 264.33 322 266 322.33 270 326.07 274.63 325 272 321.33 263 327.48 262.37 325.67 260.67 320.33 255.67 322.58 249.95 323.33 251 325 253.33 327 252.42 327 254.67 327 259.67 330.33 263 330.33 263 330.33 263 333 261.67 332.33 260.67 328.66 255.16 331.09 244.88 331.67 247 332.67 250.67 336 256.57 336 254.67 336 250.67 339.29 246.09 339.67 248 340.67 253 343.79 252.88 343.67 254.67 343.33 259.67 347 258.72 347 261 347 265.33 352.2 271.37 350.67 269.33 347.67 265.33 351.62 258.87 352.67 259.67 353.72 260.46 356.79 262.57 356 261.67 348.67 253.33 357.21 245.6 357.33 248 357.67 254.33 360.05 255.45 360.67 257 362 260.33 365.67 264 364.67 262.33 360.66 255.66 363.05 245.02 363.67 247 365.33 252.33 368.83 250.77 369 253.33 369.33 258.33 375 261.67 375 261.67 375 261.67 373.67 257.33 377 254.67 378.42 253.53 369.67 263.67 371.33 249.33 371.56 247.4 360.67 245.33 368.33 235 370.51 232.06 361 230.67 370.67 222.33 373.11 220.23 371.08 224.08 376 229 376.67 229.67 371.32 222.03 374.67 215.33 375.33 214 371 217.33 371 217.33 371 217.33 367.79 214.21 376.33 205.67 378 204 371.67 201 378 194.67 379.67 193 371 191.33 377.67 181.33 379.52 178.56 377.67 173.67 382.83 169.83 398.98 157.86 364.83 113.33 434.83 145.83 440.44 148.44 475.27 147.05 472.33 156.33 466.33 175.33 475.92 188.81 474 190 467 194.33 472.97 197.54 473 199 473.33 215.33 477.39 202.36 478.33 201.33 482.33 197 483.67 200.67 483.83 200.33 484.73 198.53 482.83 207.33 510.33 210.33 511.91 210.5 479.87 202.23 483.83 190.33 485.33 185.83 471.83 177.83 491.83 166.33 506.85 157.7 529.33 167.12 528.83 171.33 527.83 179.83 531.25 183.64 534.33 186.33 538.33 189.83 551.44 188.41 550.33 189.83 543.33 198.83 537.73 212.4 539.33 210.83 561.33 189.33 563.33 197.33 560.83 193.83 558.33 190.33 554.83 181.83 536.83 170.83 532.24 168.03 527.96 161.92 514.33 152.83 508.33 148.83 494.83 123.33 406.83 89.83 403.88 88.71 287.83 62.33 207.33 128.83 204.55 131.13 201.33 144.83 199.83 145.83 195.74 148.56 204.33 154.33 127.83 157.83 100.18 159.1 106.33 204 115.33 211 117.25 212.49 115.33 207.67 119 208.33 120.12 208.54 119.33 211 123 212.33 124.33 212.82 124.67 209.67 128 207.33 129.45 206.32 133.67 210.67 133.67 211.33 ZM 455.33 204.83 C 455.33 204.83 466.33 209.33 457.83 214.33 455.72 215.58 456.83 215.83 452.33 209.33 451.15 207.62 455.33 204.83 455.33 204.83 ZM 447.33 215.83 C 449.2 214.2 456.83 216.83 453.33 222.83 452.08 224.98 443.33 219.33 447.33 215.83 ZM 542.33 226.83 C 544.19 225.59 513.17 242.83 496.17 248.83 495.11 249.21 447.67 253.83 460.67 234.33 462.9 230.98 465.17 244.33 465.17 244.33 465.17 244.33 471.17 239.83 476.67 246.33 477.39 247.19 495.83 257.83 542.33 226.83 ZM 350.67 254.33 C 348.67 258.33 351.27 260.7 348.67 259.33 341.67 255.67 347.67 247.67 347.67 247.67 347.67 247.67 351.56 252.54 350.67 254.33 ZM 281.67 245.33 C 281.67 245.33 284.5 239.33 285.33 241 287.33 245 289.65 246.54 288.67 247.67 286.33 250.33 287.12 253.56 286 253 282.67 251.33 283.32 249.21 282 250 278.67 252 280.47 256.38 278 254.67 270.33 249.33 277.67 241.33 277.67 241.33 L 281.67 245.33 ZM 343 250 C 343 250 338 243.67 342.67 237.67 344.41 235.43 346.33 244 346.33 244 L 343 250 ZM 320.67 245.67 C 319.33 248 320.29 250.05 318.67 249.67 308.67 247.33 317.67 239.33 317.67 239.33 317.67 239.33 321.28 244.59 320.67 245.67 ZM 329.67 245.67 C 327.33 248 329.81 251.05 327.33 250 318.67 246.33 324.98 236.85 326 239.33 328.33 245 330.54 244.8 329.67 245.67 ZM 334 237.67 C 334.67 237 335 242 338 243.33 339.58 244.04 334.67 247.33 335 249.67 335.25 251.4 329.67 242 334 237.67 ZM 315 257.67 C 315 257.67 315.63 263.46 313.67 262.33 309 259.67 312.67 253.33 312.67 253.33 L 315 257.67 ZM 272.33 247.33 C 272.33 247.33 274.44 251.47 272.33 251.33 262.33 250.67 269.67 243.33 269.67 243.33 L 272.33 247.33 ZM 385.33 256.67 C 386.74 254.18 377 262 386.67 268 389.09 269.5 381 264.33 385.33 256.67 ZM 366.67 266.67 C 369.08 265.14 354.33 271.67 364 277.67 366.42 279.17 356.67 273 366.67 266.67 ZM 355 268 C 356.4 265.52 348.33 271 355.67 278.33 357.68 280.35 350.67 275.67 355 268 ZM 340.67 259.33 C 342.07 256.85 332 263.67 341.67 269.67 344.09 271.17 336.33 267 340.67 259.33 ZM 381 256 C 383.04 258.3 376.33 249 380 245.33 381.95 243.39 373 247 381 256 ZM 365.33 232.67 C 362.33 235.67 365.19 240.51 362.67 238.33 355.33 232 362.33 225 362.33 225 362.33 225 366.44 231.56 365.33 232.67 ZM 216.67 244.33 C 217.81 244.54 215.33 245.67 214.33 248.33 213.93 249.42 209.33 243 212 238.33 213.27 236.1 213 243.67 216.67 244.33 ZM 248 248.67 C 245 250 246.33 253 245.33 252.67 235.72 249.46 245 241.67 245 241.67 245 241.67 249.1 248.18 248 248.67 ZM 252 241.33 C 252.83 242.25 255.33 245 255.33 245 255.33 245 254.97 251.72 253 250.67 248 248 251.17 240.42 252 241.33 ZM 361.67 242 C 361 243.67 360.52 247.75 360 247.33 351.67 240.67 357.19 231.9 357.67 235 358.33 239.33 362.19 240.7 361.67 242 ZM 333 233.33 C 329 239 333.05 242.21 330.33 240 321.33 232.67 329.67 222.5 329.67 226 329.67 230 334.04 231.87 333 233.33 ZM 368.33 218 C 366.33 221.33 369.03 225.32 366.67 223.33 358.33 216.33 366.67 207.92 366.67 211 366.67 216.33 369.05 216.8 368.33 218 ZM 360 219 C 360 219 360.67 225.67 359 224 355 220 357.67 214.67 357.67 214.67 L 360 219 ZM 313.67 230.33 C 312.67 234.33 313.96 234.15 311.33 233 306 230.67 311.4 221.87 312 224.67 313 229.33 314.42 227.31 313.67 230.33 ZM 323 228.33 C 322 232.33 325.06 234.53 322.33 233.67 315 231.33 319.07 220.2 319.67 223 320.67 227.67 323.76 225.31 323 228.33 ZM 354 245.33 C 353 249.33 356.06 251.53 353.33 250.67 346 248.33 350.07 237.2 350.67 240 351.67 244.67 354.76 242.31 354 245.33 ZM 354.33 234.67 C 353.33 238.67 356.4 240.87 353.67 240 346.33 237.67 350.4 226.53 351 229.33 352 234 355.09 231.65 354.33 234.67 ZM 347.33 228.33 C 346.33 232.33 349.4 234.53 346.67 233.67 339.33 231.33 343.4 220.2 344 223 345 227.67 348.09 225.31 347.33 228.33 ZM 357.33 226.67 C 356.33 230.67 359.4 232.87 356.67 232 349.33 229.67 353.07 219.87 353.67 222.67 354.67 227.33 358.09 223.65 357.33 226.67 ZM 307.33 238 C 302 243.33 307.37 247.69 309 246.33 311 244.67 308.84 236.5 307.33 238 ZM 374.33 234 C 374.33 234 371 239 374.67 242.67 376.2 244.2 374.33 234 374.33 234 ZM 340 230 C 338 232.67 340.23 237.56 338 235.67 331.33 230 336.39 221.18 337 223.33 338.33 228 340.9 228.8 340 230 ZM 373.33 205.67 C 372.33 209.67 373.4 211.2 370.67 210.33 363.33 208 369.07 197.53 369.67 200.33 370.67 205 374.09 202.65 373.33 205.67 ZM 351.33 213.33 C 351.33 213.33 352.77 222.66 350.33 221 343 216 348.67 209.33 348.67 209.33 L 351.33 213.33 ZM 452.67 231 C 452.67 231 442.67 231 440.67 220.67 439.93 216.85 435 220.67 433 213 432.3 210.31 427.31 207.42 424 203.67 419 198 417.67 205.33 414.33 193.33 413.37 189.87 452.67 231 452.67 231 ZM 453.67 237.67 C 454.32 237.81 449.33 256.33 422.33 214.33 421.31 212.75 433.33 233.33 453.67 237.67 ZM 439.33 191 C 439.33 191 436.67 195.33 440 199 441.35 200.49 442 195.33 442 195.33 L 439.33 191 ZM 306.33 230.67 C 304.67 233.33 306.58 236.7 304 235.33 292.67 229.33 303.33 223.67 303.33 223.67 303.33 223.67 307.02 229.56 306.33 230.67 ZM 296 232 C 294.33 234.67 297.73 238.04 295 237 288 234.33 294 226.67 294 226.67 294 226.67 296.69 230.89 296 232 ZM 317.67 218.67 C 316 221.33 319.19 223.95 316.33 223.33 308.67 221.67 314.67 213 314.67 213 314.67 213 318.36 217.56 317.67 218.67 ZM 364 204 C 362.33 206.67 364.2 211.24 362.33 209 357.33 203 362.33 198.67 362.33 198.67 362.33 198.67 364.69 202.89 364 204 ZM 302.33 242.33 C 301.67 245.33 303.06 246.99 303.67 248.33 305.33 252 307.67 252.67 307.67 252.67 307.67 252.67 307.43 260.4 305.33 258.67 297.67 252.33 302.64 250.29 300.33 249 292 244.33 298 238.67 298 238.67 298 238.67 302.67 240.83 302.33 242.33 ZM 382.67 217.67 C 383.94 215.11 375.67 223 385 227.67 387.55 228.94 379.67 223.67 382.67 217.67 ZM 333.33 224 C 323.67 218 333.4 210.18 332 212.67 327.67 220.33 335.76 225.5 333.33 224 ZM 237.67 252.33 C 231 247.33 234.51 244.7 236.33 243.33 238.15 241.97 239.49 253.7 237.67 252.33 ZM 266.67 259.33 C 266.67 259.33 262.67 261.33 267.33 266 268.52 267.18 269.67 260.67 269.67 260.67 L 266.67 259.33 ZM 299 262.33 C 299.89 260.26 293.33 265.33 298.33 271.33 298.81 271.91 297 267 299 262.33 ZM 285.33 265.67 C 286.12 264.79 288.67 269 288.67 269 288.67 269 286.42 271 285.67 271.67 284.92 272.33 282.67 268.67 285.33 265.67 ZM 253.67 262 251.67 265.33 C 251.67 265.33 246.33 264.33 249.67 256.33 250.55 254.21 253.67 262 253.67 262 ZM 206.33 235.67 C 206.33 235.67 203 242 209 244 210.14 244.38 206.33 235.67 206.33 235.67 ZM 151 219.33 C 151 219.33 145 217.67 149.33 211 150.49 209.22 152.33 215.33 152.33 215.33 L 151 219.33 ZM 158.67 218.33 C 158.67 218.33 154.33 216.33 157 211.67 158.05 209.82 158 215.67 158 215.67 L 158.67 218.33 ZM 171 211.67 C 171 211.67 169.33 215 172.33 218.33 173.65 219.79 174 216.33 174 216.33 L 171 211.67 ZM 390.33 178.67 C 391.44 176.95 383 179.67 388.67 186.67 390 188.32 386.67 184.33 390.33 178.67 ZM 339.67 221.67 C 334 214.67 342.44 211.95 341.33 213.67 337.67 219.33 341 223.32 339.67 221.67 ZM 280.67 229.67 C 280.67 229.67 279.76 234.35 278.33 233.33 273.67 230 278.67 227.33 278.67 227.33 L 280.67 229.67 ZM 272.33 232 C 272.33 232 270.9 237.17 270 235.67 267 230.67 270.33 229.67 270.33 229.67 L 272.33 232 ZM 288.33 230.67 C 288.33 230.67 287.43 235.35 286 234.33 281.33 231 286.33 228.33 286.33 228.33 L 288.33 230.67 ZM 292.67 241.33 C 292.67 241.33 290.95 246.47 290 245 287 240.33 290 238 290 238 L 292.67 241.33 ZM 265.67 233.33 C 265.67 233.33 263.76 238.02 262.33 237 257.67 233.67 263.67 228.67 263.67 228.67 L 265.67 233.33 ZM 262.33 244.67 C 262.33 244.67 263.23 251.45 261.67 250.67 255.67 247.67 259.33 241.67 259.33 241.67 L 262.33 244.67 ZM 233.67 237 C 233.67 237 232.76 241.68 231.33 240.67 226.67 237.33 231.67 234.67 231.67 234.67 L 233.67 237 ZM 241.67 235 C 241.67 235 241.77 242 240.33 241 236 238 237.67 231.33 237.67 231.33 L 241.67 235 ZM 308.67 217.67 C 308.67 217.67 308.29 223.52 307 222.33 299 215 306.67 214 306.67 214 L 308.67 217.67 ZM 299.67 217.33 C 299.67 217.33 298.76 222.02 297.33 221 292.67 217.67 297.67 215 297.67 215 L 299.67 217.33 ZM 268.33 221.33 C 268.33 221.33 266.33 224.77 265.33 223.33 262.33 219 266 217 266 217 L 268.33 221.33 ZM 257 231.33 C 257 231.33 256.24 235.91 255 234.67 252.67 232.33 255 229 255 229 L 257 231.33 Z"/><path fill="#d91d1d" transform="scale(1.0666667)" d="M 395.17 255.83 C 396.54 255.83 398.33 257.71 398.33 259.08 398.33 260.46 397.21 261.58 395.83 261.58 394.46 261.58 392.92 260.21 392.92 258.83 392.92 257.46 393.79 255.83 395.17 255.83 ZM 386.42 257.08 C 387.79 257.08 388.92 258.46 388.92 259.83 388.92 261.21 387.54 262.33 386.17 262.33 384.79 262.33 383.92 260.46 383.92 259.08 383.92 257.71 385.04 257.08 386.42 257.08 ZM 379.17 258.25 C 380.54 258.25 381.67 259.38 381.67 260.75 381.67 262.13 380.54 263.25 379.17 263.25 377.79 263.25 376.67 262.13 376.67 260.75 376.67 259.38 377.79 258.25 379.17 258.25 ZM 368.5 259.58 C 369.88 259.58 370.17 259.54 370.17 260.92 370.17 262.29 369.88 263.25 368.5 263.25 367.13 263.25 366.17 262.96 366.17 261.58 366.17 260.21 367.13 259.58 368.5 259.58 ZM 389.83 243.58 C 391.21 243.58 393 246.38 393 247.75 393 249.13 391.88 251.58 390.5 251.58 389.13 251.58 388 249.13 388 247.75 388 246.38 388.46 243.58 389.83 243.58 ZM 381.5 244.25 C 382.88 244.25 384.67 247.04 384.67 248.42 384.67 249.79 383.54 252.25 382.17 252.25 380.79 252.25 379.67 249.79 379.67 248.42 379.67 247.04 380.13 244.25 381.5 244.25 ZM 403.17 254.33 C 404.54 254.33 405.17 255.71 405.17 257.08 405.17 258.46 407.54 260.33 406.17 260.33 404.79 260.33 402.33 258.79 402.33 257.42 402.33 256.04 401.79 254.33 403.17 254.33 ZM 372.83 245.58 C 374.21 245.58 374.92 249.21 374.92 250.58 374.92 251.96 374.88 253.58 373.5 253.58 372.13 253.58 371 251.13 371 249.75 371 248.38 371.46 245.58 372.83 245.58 ZM 359.5 259.92 C 360.88 259.92 361.17 259.88 361.17 261.25 361.17 262.63 360.88 263.58 359.5 263.58 358.13 263.58 357.17 263.29 357.17 261.92 357.17 260.54 358.13 259.92 359.5 259.92 ZM 390.42 264.83 C 391.79 264.83 392.42 266.46 392.42 267.83 392.42 269.21 392.54 270.25 391.17 270.25 389.79 270.25 388.83 269.96 388.83 268.58 388.83 267.21 389.04 264.83 390.42 264.83 ZM 363.5 249.58 C 364.88 249.58 365.17 249.54 365.17 250.92 365.17 252.29 364.88 253.25 363.5 253.25 362.13 253.25 361.17 252.96 361.17 251.58 361.17 250.21 362.13 249.58 363.5 249.58 ZM 355.17 250.25 C 356.54 250.25 356.83 250.21 356.83 251.58 356.83 252.96 356.54 253.92 355.17 253.92 353.79 253.92 352.83 253.63 352.83 252.25 352.83 250.88 353.79 250.25 355.17 250.25 ZM 347.17 251.25 C 348.54 251.25 348.83 251.21 348.83 252.58 348.83 253.96 348.54 254.92 347.17 254.92 345.79 254.92 344.83 254.63 344.83 253.25 344.83 251.88 345.79 251.25 347.17 251.25 ZM 329.5 252.92 C 330.88 252.92 331.17 252.88 331.17 254.25 331.17 255.63 330.88 256.58 329.5 256.58 328.13 256.58 327.17 256.29 327.17 254.92 327.17 253.54 328.13 252.92 329.5 252.92 ZM 333.67 240.33 C 335.04 240.33 336.17 240.21 336.17 241.58 336.17 242.96 335.88 243.92 334.5 243.92 333.13 243.92 332.17 243.62 332.17 242.25 332.17 240.87 332.29 240.33 333.67 240.33 ZM 323.92 241.58 C 325.29 241.58 326.83 241.21 326.83 242.58 326.83 243.96 326.54 244.92 325.17 244.92 323.79 244.92 322.83 244.63 322.83 243.25 322.83 241.87 322.54 241.58 323.92 241.58 ZM 316.5 242.92 C 317.88 242.92 318.17 242.87 318.17 244.25 318.17 245.63 317.88 246.58 316.5 246.58 315.13 246.58 314.17 246.29 314.17 244.92 314.17 243.54 315.13 242.92 316.5 242.92 ZM 308.17 243.58 C 309.54 243.58 309.83 243.54 309.83 244.92 309.83 246.29 309.54 247.25 308.17 247.25 306.79 247.25 305.83 246.96 305.83 245.58 305.83 244.21 306.79 243.58 308.17 243.58 ZM 300.17 244.25 C 301.54 244.25 301.83 244.21 301.83 245.58 301.83 246.96 301.54 247.92 300.17 247.92 298.79 247.92 297.83 247.63 297.83 246.25 297.83 244.88 298.79 244.25 300.17 244.25 ZM 341.5 239.25 C 342.88 239.25 343.17 239.21 343.17 240.58 343.17 241.96 342.88 242.92 341.5 242.92 340.13 242.92 339.17 242.62 339.17 241.25 339.17 239.87 340.13 239.25 341.5 239.25 ZM 321.17 229.83 C 322.54 229.83 323.83 231.21 323.83 232.58 323.83 233.96 323.54 234.92 322.17 234.92 320.79 234.92 319.83 234.62 319.83 233.25 319.83 231.87 319.79 229.83 321.17 229.83 ZM 312.67 230.33 C 314.04 230.33 315 231.71 315 233.08 315 234.46 313.88 236.92 312.5 236.92 311.13 236.92 310 234.46 310 233.08 310 231.71 311.29 230.33 312.67 230.33 ZM 415.17 262.58 C 416.2 262.58 416.67 263.83 416.92 264.58 417.17 265.33 420.17 270.08 417.92 268.08 415.67 266.08 414.92 266.11 414.92 265.08 414.92 264.05 414.14 262.58 415.17 262.58 ZM 420.17 259.83 C 421.2 259.83 421.67 261.08 421.92 261.83 422.17 262.58 425.17 267.33 422.92 265.33 420.67 263.33 419.92 263.36 419.92 262.33 419.92 261.3 419.14 259.83 420.17 259.83 ZM 422.17 248.33 C 423.2 248.33 424.42 249.58 424.67 250.33 424.92 251.08 426.67 256.83 424.42 254.83 422.17 252.83 421.92 251.86 421.92 250.83 421.92 249.8 421.14 248.33 422.17 248.33 ZM 437.92 247.83 C 438.95 247.83 439.42 249.08 439.67 249.83 439.92 250.58 442.92 255.33 440.67 253.33 438.42 251.33 437.67 251.36 437.67 250.33 437.67 249.3 436.89 247.83 437.92 247.83 ZM 427.42 246.33 C 428.45 246.33 428.92 247.58 429.17 248.33 429.42 249.08 432.42 253.83 430.17 251.83 427.92 249.83 427.17 249.86 427.17 248.83 427.17 247.8 426.39 246.33 427.42 246.33 ZM 408.42 264.08 C 409.45 264.08 409.92 265.33 410.17 266.08 410.42 266.83 413.42 271.58 411.17 269.58 408.92 267.58 408.17 267.61 408.17 266.58 408.17 265.55 407.39 264.08 408.42 264.08 ZM 414.67 245.08 C 415.7 245.08 416.17 246.33 416.42 247.08 416.67 247.83 419.17 251.83 416.92 249.83 414.67 247.83 414.42 248.61 414.42 247.58 414.42 246.55 413.64 245.08 414.67 245.08 ZM 422.42 239.33 C 423.45 239.33 423.92 240.58 424.17 241.33 424.42 242.08 427.42 246.83 425.17 244.83 422.92 242.83 422.17 242.86 422.17 241.83 422.17 240.8 421.39 239.33 422.42 239.33 ZM 432.17 244.08 C 433.2 244.08 433.67 245.33 433.92 246.08 434.17 246.83 437.17 251.58 434.92 249.58 432.67 247.58 431.92 247.61 431.92 246.58 431.92 245.55 431.14 244.08 432.17 244.08 ZM 426.92 236.33 C 427.95 236.33 428.42 237.58 428.67 238.33 428.92 239.08 431.92 243.83 429.67 241.83 427.42 239.83 426.67 239.86 426.67 238.83 426.67 237.8 425.89 236.33 426.92 236.33 ZM 430.92 233.83 C 431.95 233.83 432.42 235.08 432.67 235.83 432.92 236.58 435.92 241.33 433.67 239.33 431.42 237.33 430.67 237.36 430.67 236.33 430.67 235.3 429.89 233.83 430.92 233.83 ZM 426.92 264.83 C 427.95 264.83 428.67 265.83 428.92 266.58 429.17 267.33 431.92 270.83 429.67 268.83 427.42 266.83 428.17 269.11 428.17 268.08 428.17 267.05 425.89 264.83 426.92 264.83 ZM 443.67 246.08 C 444.7 246.08 444.17 247.08 444.42 247.83 444.67 248.58 447.92 252.58 445.67 250.58 443.42 248.58 443.42 249.61 443.42 248.58 443.42 247.55 442.64 246.08 443.67 246.08 ZM 398.17 263.83 C 399.2 263.83 400.42 263.33 400.67 264.08 400.92 264.83 401.92 270.58 399.67 268.58 397.42 266.58 397.92 267.36 397.92 266.33 397.92 265.3 397.14 263.83 398.17 263.83 ZM 429.67 255.92 C 431.04 255.92 431.33 255.88 431.33 257.25 431.33 258.63 432.29 259.58 430.92 259.58 429.54 259.58 427.92 258.71 427.92 257.33 427.92 255.96 428.29 255.92 429.67 255.92 ZM 435.42 262.17 C 436.79 262.17 437.08 262.13 437.08 263.5 437.08 264.88 436.79 265.83 435.42 265.83 434.04 265.83 433.08 265.54 433.08 264.17 433.08 262.79 434.04 262.17 435.42 262.17 ZM 440.42 259.33 C 441.79 259.33 442.08 259.29 442.08 260.67 442.08 262.04 444.29 262.58 442.92 262.58 441.54 262.58 439.92 262.21 439.92 260.83 439.92 259.46 439.04 259.33 440.42 259.33 ZM 435.42 253.42 C 436.79 253.42 437.08 253.38 437.08 254.75 437.08 256.13 436.79 257.08 435.42 257.08 434.04 257.08 433.08 256.79 433.08 255.42 433.08 254.04 434.04 253.42 435.42 253.42 ZM 444.67 253.92 C 446.04 253.92 445.67 253.46 445.67 254.83 445.67 256.21 447.79 257.33 446.42 257.33 445.04 257.33 443.67 257.46 443.67 256.08 443.67 254.71 443.29 253.92 444.67 253.92 ZM 416.42 252.83 C 417.79 252.83 419.67 254.96 419.67 256.33 419.67 257.71 419.54 257.08 418.17 257.08 416.79 257.08 415.83 256.79 415.83 255.42 415.83 254.04 415.04 252.83 416.42 252.83 ZM 411.42 255.42 C 412.79 255.42 413.08 255.38 413.08 256.75 413.08 258.13 412.79 259.08 411.42 259.08 410.04 259.08 409.08 258.79 409.08 257.42 409.08 256.04 410.04 255.42 411.42 255.42 ZM 425.17 257.67 C 426.54 257.67 426.83 257.63 426.83 259 426.83 260.38 426.54 260.58 425.17 260.58 423.79 260.58 423.42 260.46 423.42 259.08 423.42 257.71 423.79 257.67 425.17 257.67 ZM 380.17 267.58 C 381.54 267.58 381.17 267.21 381.17 268.58 381.17 269.96 381.54 269.58 380.17 269.58 378.79 269.58 379.17 270.21 379.17 268.83 379.17 267.46 378.79 267.58 380.17 267.58 ZM 373.17 268.83 C 374.54 268.83 374.17 268.46 374.17 269.83 374.17 271.21 374.54 270.83 373.17 270.83 371.79 270.83 372.17 271.46 372.17 270.08 372.17 268.71 371.79 268.83 373.17 268.83 ZM 350.17 261.58 C 351.54 261.58 351.17 261.21 351.17 262.58 351.17 263.96 351.54 263.58 350.17 263.58 348.79 263.58 349.17 264.21 349.17 262.83 349.17 261.46 348.79 261.58 350.17 261.58 ZM 341.42 261.58 C 342.79 261.58 342.42 261.21 342.42 262.58 342.42 263.96 342.79 263.58 341.42 263.58 340.04 263.58 340.42 264.21 340.42 262.83 340.42 261.46 340.04 261.58 341.42 261.58 ZM 337.92 252.08 C 339.29 252.08 338.92 251.71 338.92 253.08 338.92 254.46 339.29 254.08 337.92 254.08 336.54 254.08 336.92 254.71 336.92 253.33 336.92 251.96 336.54 252.08 337.92 252.08 ZM 320.67 254.33 C 322.04 254.33 321.67 253.96 321.67 255.33 321.67 256.71 322.04 256.33 320.67 256.33 319.29 256.33 319.67 256.96 319.67 255.58 319.67 254.21 319.29 254.33 320.67 254.33 ZM 311.5 255.5 C 312.88 255.5 312.75 255.13 312.75 256.5 312.75 257.88 312.63 256.75 311.25 256.75 309.88 256.75 310.42 257.46 310.42 256.08 310.42 254.71 310.13 255.5 311.5 255.5 ZM 303 257.5 C 303.75 257.5 304.17 256.21 304.17 257.58 304.17 258.96 304.38 257.5 303 257.5 301.63 257.5 303.17 258.71 303.17 257.33 303.17 255.96 302.25 257.5 303 257.5 ZM 295.67 257.83 C 297.04 257.83 295.75 257.63 295.75 259 295.75 260.38 296.88 259 295.5 259 294.13 259 295.67 259.96 295.67 258.58 295.67 257.21 294.29 257.83 295.67 257.83 ZM 291.42 244.17 C 292.79 244.17 293.08 244.13 293.08 245.5 293.08 246.88 292.79 247.83 291.42 247.83 290.04 247.83 289.08 247.54 289.08 246.17 289.08 244.79 290.04 244.17 291.42 244.17 ZM 285.67 244.83 C 287.04 244.83 287.58 244.38 287.58 245.75 287.58 247.13 287.29 248.08 285.92 248.08 284.54 248.08 284.42 248.21 284.42 246.83 284.42 245.46 284.29 244.83 285.67 244.83 ZM 277.42 245.42 C 278.79 245.42 278.42 245.71 278.42 247.08 278.42 248.46 278.79 249.08 277.42 249.08 276.04 249.08 276.42 248.21 276.42 246.83 276.42 245.46 276.04 245.42 277.42 245.42 ZM 268.92 246.17 C 270.29 246.17 269.92 246.21 269.92 247.58 269.92 248.96 270.29 248.58 268.92 248.58 267.54 248.58 268.42 248.96 268.42 247.58 268.42 246.21 267.54 246.17 268.92 246.17 ZM 288.17 233.17 C 289.54 233.17 288.92 233.71 288.92 235.08 288.92 236.46 289.54 236.83 288.17 236.83 286.79 236.83 285.83 236.54 285.83 235.17 285.83 233.79 286.79 233.17 288.17 233.17 ZM 295.42 232.17 C 296.79 232.17 297.08 232.13 297.08 233.5 297.08 234.88 296.79 235.83 295.42 235.83 294.04 235.83 294.42 235.46 294.42 234.08 294.42 232.71 294.04 232.17 295.42 232.17 ZM 303.67 230.58 C 305.04 230.58 305.42 231.46 305.42 232.83 305.42 234.21 305.79 235.33 304.42 235.33 303.04 235.33 302.08 235.04 302.08 233.67 302.08 232.29 302.29 230.58 303.67 230.58 ZM 280.92 234.92 C 282.29 234.92 282.58 234.88 282.58 236.25 282.58 237.63 282.29 238.58 280.92 238.58 279.54 238.58 278.58 238.29 278.58 236.92 278.58 235.54 279.54 234.92 280.92 234.92 ZM 272.42 234.67 C 273.79 234.67 274.08 234.63 274.08 236 274.08 237.38 273.79 238.33 272.42 238.33 271.04 238.33 271.67 237.71 271.67 236.33 271.67 234.96 271.04 234.67 272.42 234.67 ZM 328.92 230 C 330.29 230 331.58 231.37 331.58 232.75 331.58 234.12 331.29 235.08 329.92 235.08 328.54 235.08 327.58 234.79 327.58 233.42 327.58 232.04 327.54 230 328.92 230 ZM 349 236.67 C 350.38 236.67 352.17 239.46 352.17 240.83 352.17 242.21 351.04 244.67 349.67 244.67 348.29 244.67 347.17 242.21 347.17 240.83 347.17 239.46 347.63 236.67 349 236.67 ZM 357.5 235.42 C 358.88 235.42 360.67 238.21 360.67 239.58 360.67 240.96 359.54 243.42 358.17 243.42 356.79 243.42 355.67 240.96 355.67 239.58 355.67 238.21 356.13 235.42 357.5 235.42 ZM 366.67 235.08 C 368.04 235.08 369.83 237.88 369.83 239.25 369.83 240.63 368.71 243.08 367.33 243.08 365.96 243.08 364.83 240.63 364.83 239.25 364.83 237.88 365.29 235.08 366.67 235.08 ZM 375.42 235.08 C 376.79 235.08 378.58 237.88 378.58 239.25 378.58 240.63 377.46 243.08 376.08 243.08 374.71 243.08 373.58 240.63 373.58 239.25 373.58 237.88 374.04 235.08 375.42 235.08 ZM 383.42 234.08 C 384.79 234.08 386.58 236.88 386.58 238.25 386.58 239.63 385.46 242.08 384.08 242.08 382.71 242.08 381.58 239.63 381.58 238.25 381.58 236.88 382.04 234.08 383.42 234.08 ZM 392.67 232.58 C 394.04 232.58 395.83 235.38 395.83 236.75 395.83 238.13 394.71 240.58 393.33 240.58 391.96 240.58 390.83 238.13 390.83 236.75 390.83 235.38 391.29 232.58 392.67 232.58 ZM 379.17 221.83 C 380.54 221.83 381.67 224.58 382.33 226 383 227.42 381.21 229.83 379.83 229.83 378.46 229.83 377.33 227.38 377.33 226 377.33 224.63 377.79 221.83 379.17 221.83 ZM 370.67 225.33 C 372.04 225.33 373.08 226.38 373.08 227.75 373.08 229.13 371.96 231.58 370.58 231.58 369.21 231.58 368.92 229.71 368.92 228.33 368.92 226.96 369.29 225.33 370.67 225.33 ZM 362.17 226.58 C 363.54 226.58 364.33 227.63 364.33 229 364.33 230.38 363.29 232.33 361.92 232.33 360.54 232.33 359.67 230.21 359.67 228.83 359.67 227.46 360.79 226.58 362.17 226.58 ZM 354.17 225.33 C 355.54 225.33 355.92 227.96 355.92 229.33 355.92 230.71 355.29 232.33 353.92 232.33 352.54 232.33 352.33 230.88 352.33 229.5 352.33 228.13 352.79 225.33 354.17 225.33 ZM 387.17 221.58 C 388.54 221.58 390.92 225.83 390.33 225.75 387.36 225.32 389.21 229.58 387.83 229.58 386.46 229.58 385.33 227.13 385.33 225.75 385.33 224.38 385.79 221.58 387.17 221.58 ZM 345.42 226.58 C 346.79 226.58 346.92 228.46 346.92 229.83 346.92 231.21 347.29 233.33 345.92 233.33 344.54 233.33 343.17 231.46 343.17 230.08 343.17 228.71 344.04 226.58 345.42 226.58 ZM 335.92 227.58 C 337.29 227.58 339.08 230.38 339.08 231.75 339.08 233.13 337.96 235.58 336.58 235.58 335.21 235.58 334.08 233.13 334.08 231.75 334.08 230.38 334.54 227.58 335.92 227.58 ZM 391.42 208.58 C 392.79 208.58 394.58 211.38 394.58 212.75 394.58 214.13 393.46 216.58 392.08 216.58 390.71 216.58 389.58 214.13 389.58 212.75 389.58 211.38 390.04 208.58 391.42 208.58 ZM 381.67 209.58 C 383.04 209.58 383.67 212.46 383.67 213.83 383.67 215.21 383.71 217.58 382.33 217.58 380.96 217.58 379.83 215.13 379.83 213.75 379.83 212.38 380.29 209.58 381.67 209.58 ZM 373.42 212.83 C 374.79 212.83 374.67 213.46 374.67 214.83 374.67 216.21 375.71 218.58 374.33 218.58 372.96 218.58 371.83 216.13 371.83 214.75 371.83 213.38 372.04 212.83 373.42 212.83 ZM 364.42 212.58 C 365.79 212.58 366.42 213.96 366.42 215.33 366.42 216.71 366.46 219.08 365.08 219.08 363.71 219.08 362.58 216.63 362.58 215.25 362.58 213.88 363.04 212.58 364.42 212.58 ZM 356.67 213.83 C 358.04 213.83 359.83 215.88 359.83 217.25 359.83 218.63 358.54 220.33 357.17 220.33 355.79 220.33 354.83 218.63 354.83 217.25 354.83 215.88 355.29 213.83 356.67 213.83 ZM 348.92 213.58 C 350.29 213.58 350.92 216.96 350.92 218.33 350.92 219.71 350.96 221.58 349.58 221.58 348.21 221.58 347.08 219.13 347.08 217.75 347.08 216.38 347.54 213.58 348.92 213.58 ZM 340.92 214.58 C 342.29 214.58 343.83 215.88 343.83 217.25 343.83 218.63 342.71 221.08 341.33 221.08 339.96 221.08 340.42 219.33 339.67 217.83 339.05 216.6 339.54 214.58 340.92 214.58 ZM 386.92 195.58 C 388.29 195.58 390.08 198.38 390.08 199.75 390.08 201.13 388.96 203.58 387.58 203.58 386.21 203.58 385.08 201.13 385.08 199.75 385.08 198.38 385.54 195.58 386.92 195.58 ZM 376.92 195.58 C 378.29 195.58 380.08 198.38 380.08 199.75 380.08 201.13 378.96 203.58 377.58 203.58 376.21 203.58 375.08 201.13 375.08 199.75 375.08 198.38 375.54 195.58 376.92 195.58 ZM 370.5 197.33 C 371.88 197.33 373.67 200.13 373.67 201.5 373.67 202.88 372.54 205.33 371.17 205.33 369.79 205.33 368.67 202.88 368.67 201.5 368.67 200.13 369.13 197.33 370.5 197.33 ZM 390.75 182.17 C 392.13 182.17 393.92 184.96 393.92 186.33 393.92 187.71 392.79 190.17 391.42 190.17 390.04 190.17 388.92 187.71 388.92 186.33 388.92 184.96 389.38 182.17 390.75 182.17 ZM 381.75 182.67 C 383.13 182.67 384.92 185.46 384.92 186.83 384.92 188.21 383.79 190.67 382.42 190.67 381.04 190.67 379.92 188.21 379.92 186.83 379.92 185.46 380.38 182.67 381.75 182.67 ZM 373.5 182.58 C 374.88 182.58 376.67 185.38 376.67 186.75 376.67 188.13 375.54 190.58 374.17 190.58 372.79 190.58 371.67 188.13 371.67 186.75 371.67 185.38 372.13 182.58 373.5 182.58 ZM 366.75 184.58 C 368.13 184.58 369.92 187.38 369.92 188.75 369.92 190.13 368.79 192.58 367.42 192.58 366.04 192.58 364.92 190.13 364.92 188.75 364.92 187.38 365.38 184.58 366.75 184.58 ZM 316.17 216.83 C 316.92 218.58 317.67 219.08 317.17 220.33 316.67 221.58 317.54 223.08 316.17 223.08 314.79 223.08 313.67 221.38 313.67 220 313.67 218.63 315.42 215.08 316.17 216.83 ZM 325.67 216.33 C 327.67 217.08 327.17 218.58 326.67 219.83 326.17 221.08 327.04 222.58 325.67 222.58 324.29 222.58 323.17 220.88 323.17 219.5 323.17 218.13 323.67 215.58 325.67 216.33 ZM 331.67 216.08 C 333.67 216.83 333.17 218.33 332.67 219.58 332.17 220.83 333.04 222.33 331.67 222.33 330.29 222.33 329.17 220.63 329.17 219.25 329.17 217.88 329.67 215.33 331.67 216.08 ZM 306.67 216.83 C 306.67 216.83 308.42 217.83 307.92 219.08 307.42 220.33 308.29 221.83 306.92 221.83 305.54 221.83 304.42 220.13 304.42 218.75 304.42 217.38 306.45 216.71 306.67 216.83 ZM 298.92 218.08 C 300.92 218.83 300.67 219.58 300.17 220.83 299.67 222.08 300.54 223.58 299.17 223.58 297.79 223.58 296.67 221.88 296.67 220.5 296.67 219.13 296.92 217.33 298.92 218.08 ZM 290.92 219.08 C 292.92 219.83 292.42 221.33 291.92 222.58 291.42 223.83 292.29 225.33 290.92 225.33 289.54 225.33 288.42 223.63 288.42 222.25 288.42 220.88 288.92 218.33 290.92 219.08 ZM 283.17 220.33 C 285.17 221.08 284.67 222.58 284.17 223.83 283.67 225.08 284.54 226.58 283.17 226.58 281.79 226.58 280.67 224.88 280.67 223.5 280.67 222.13 281.17 219.58 283.17 220.33 ZM 303.17 204.58 C 305.17 205.33 304.67 206.83 304.17 208.08 303.67 209.33 304.54 210.83 303.17 210.83 301.79 210.83 300.67 209.13 300.67 207.75 300.67 206.38 301.17 203.83 303.17 204.58 ZM 287.42 205.83 C 289.42 206.58 288.92 208.08 288.42 209.33 287.92 210.58 288.79 212.08 287.42 212.08 286.04 212.08 284.92 210.38 284.92 209 284.92 207.63 285.42 205.08 287.42 205.83 ZM 276.17 221.08 C 278.17 221.83 277.67 223.33 277.17 224.58 276.67 225.83 277.54 227.33 276.17 227.33 274.79 227.33 273.67 225.63 273.67 224.25 273.67 222.88 274.17 220.33 276.17 221.08 ZM 268.67 221.83 C 270.67 222.58 270.17 224.08 269.67 225.33 269.17 226.58 270.04 228.08 268.67 228.08 267.29 228.08 266.17 226.38 266.17 225 266.17 223.63 266.67 221.08 268.67 221.83 ZM 289.92 192.92 C 291.92 193.67 291.42 195.17 290.92 196.42 290.42 197.67 291.29 199.17 289.92 199.17 288.54 199.17 287.42 197.46 287.42 196.08 287.42 194.71 287.92 192.17 289.92 192.92 ZM 297.92 191.83 C 299.92 192.58 299.42 194.08 298.92 195.33 298.42 196.58 299.29 198.08 297.92 198.08 296.54 198.08 295.42 196.38 295.42 195 295.42 193.63 295.92 191.08 297.92 191.83 ZM 307.17 191.58 C 309.17 192.33 308.67 193.83 308.17 195.08 307.67 196.33 308.54 197.83 307.17 197.83 305.79 197.83 304.67 196.13 304.67 194.75 304.67 193.38 305.17 190.83 307.17 191.58 ZM 314.17 189.33 C 316.17 190.08 315.67 191.58 315.17 192.83 314.67 194.08 315.54 195.58 314.17 195.58 312.79 195.58 311.67 193.88 311.67 192.5 311.67 191.13 312.17 188.58 314.17 189.33 ZM 263.67 209.67 C 265.67 210.42 265.17 211.92 264.67 213.17 264.17 214.42 265.04 215.92 263.67 215.92 262.29 215.92 261.17 214.21 261.17 212.83 261.17 211.46 261.67 208.92 263.67 209.67 ZM 255.42 210.42 C 257.42 211.17 256.92 212.67 256.42 213.92 255.92 215.17 256.79 216.67 255.42 216.67 254.04 216.67 252.92 214.96 252.92 213.58 252.92 212.21 253.42 209.67 255.42 210.42 ZM 246.17 211.83 C 248.17 212.58 247.67 214.08 247.17 215.33 246.67 216.58 247.54 218.08 246.17 218.08 244.79 218.08 243.67 216.38 243.67 215 243.67 213.63 244.17 211.08 246.17 211.83 ZM 260.75 223.25 C 262.75 224 261.92 224.83 261.42 226.08 260.92 227.33 261.79 228.83 260.42 228.83 259.04 228.83 259 227.13 259 225.75 259 224.38 258.75 222.5 260.75 223.25 ZM 297.5 166.58 C 298.88 166.58 298.47 168.03 299.25 169.33 300 170.58 298.5 171.33 298 173.33 297.67 174.67 295.5 171.13 295.5 169.75 295.5 168.38 296.13 166.58 297.5 166.58 ZM 281.75 171.33 C 283.13 171.33 282.72 172.78 283.5 174.08 284.25 175.33 282.75 176.08 282.25 178.08 281.92 179.42 279.75 175.88 279.75 174.5 279.75 173.13 280.38 171.33 281.75 171.33 ZM 278.5 183.33 C 279.88 183.33 278.97 185.2 279.75 186.5 280.5 187.75 279.5 188.08 279 190.08 278.67 191.42 276.5 187.88 276.5 186.5 276.5 185.13 277.13 183.33 278.5 183.33 ZM 295 181.08 C 296.38 181.08 295.97 182.53 296.75 183.83 297.5 185.08 296 185.83 295.5 187.83 295.17 189.17 293 185.63 293 184.25 293 182.88 293.63 181.08 295 181.08 ZM 301.25 179.08 C 302.63 179.08 302.22 180.53 303 181.83 303.75 183.08 302.25 183.83 301.75 185.83 301.42 187.17 299.25 183.63 299.25 182.25 299.25 180.88 299.88 179.08 301.25 179.08 ZM 310 179.08 C 311.38 179.08 310.97 180.53 311.75 181.83 312.5 183.08 311 183.83 310.5 185.83 310.17 187.17 308 183.63 308 182.25 308 180.88 308.63 179.08 310 179.08 ZM 305.75 165.33 C 307.13 165.33 306.72 166.78 307.5 168.08 308.25 169.33 306.75 170.08 306.25 172.08 305.92 173.42 303.75 169.88 303.75 168.5 303.75 167.13 304.38 165.33 305.75 165.33 ZM 264.75 174.58 C 266.13 174.58 265.22 176.45 266 177.75 266.75 179 265.75 179.33 265.25 181.33 264.92 182.67 262.75 179.13 262.75 177.75 262.75 176.38 263.38 174.58 264.75 174.58 ZM 314.75 165.58 C 316.13 165.58 315.72 167.03 316.5 168.33 317.25 169.58 315.75 170.33 315.25 172.33 314.92 173.67 312.75 170.13 312.75 168.75 312.75 167.38 313.38 165.58 314.75 165.58 ZM 320.25 179.08 C 321.63 179.08 321.22 180.53 322 181.83 322.75 183.08 321.25 183.83 320.75 185.83 320.42 187.17 318.25 183.63 318.25 182.25 318.25 180.88 318.88 179.08 320.25 179.08 ZM 327.25 178.08 C 328.63 178.08 328.22 179.53 329 180.83 329.75 182.08 328.25 182.83 327.75 184.83 327.42 186.17 325.25 182.63 325.25 181.25 325.25 179.88 325.88 178.08 327.25 178.08 ZM 335.25 174.58 C 336.63 174.58 336.22 176.03 337 177.33 337.75 178.58 336.25 179.33 335.75 181.33 335.42 182.67 333.25 179.13 333.25 177.75 333.25 176.38 333.88 174.58 335.25 174.58 ZM 324 188.83 C 325.38 188.83 324.97 190.28 325.75 191.58 326.5 192.83 325 193.58 324.5 195.58 324.17 196.92 322 193.38 322 192 322 190.63 322.63 188.83 324 188.83 ZM 331.5 188.08 C 332.88 188.08 332.47 189.53 333.25 190.83 334 192.08 332.5 192.83 332 194.83 331.67 196.17 329.5 192.63 329.5 191.25 329.5 189.88 330.13 188.08 331.5 188.08 ZM 341 186.58 C 342.38 186.58 341.97 188.03 342.75 189.33 343.5 190.58 342 191.33 341.5 193.33 341.17 194.67 339 191.13 339 189.75 339 188.38 339.63 186.58 341 186.58 ZM 349.5 186.58 C 350.88 186.58 350.47 188.03 351.25 189.33 352 190.58 350.5 191.33 350 193.33 349.67 194.67 347.5 191.13 347.5 189.75 347.5 188.38 348.13 186.58 349.5 186.58 ZM 377 171.08 C 378.38 171.08 380 173.58 380 175.5 380 177.42 378.88 179.33 377.5 179.33 376.13 179.33 374.5 176.46 374.5 175.08 374.5 173.71 375.63 171.08 377 171.08 ZM 363.5 161.83 C 364.88 161.83 366.5 164.33 366.5 166.25 366.5 168.17 365.38 170.08 364 170.08 362.63 170.08 361 167.21 361 165.83 361 164.46 362.13 161.83 363.5 161.83 ZM 372 159.33 C 373.38 159.33 375 161.83 375 163.75 375 165.67 373.88 167.58 372.5 167.58 371.13 167.58 369.5 164.71 369.5 163.33 369.5 161.96 370.63 159.33 372 159.33 ZM 346.5 162.67 C 347.88 162.67 349.5 165.17 349.5 167.08 349.5 169 348.38 170.92 347 170.92 345.63 170.92 344 168.04 344 166.67 344 165.29 345.13 162.67 346.5 162.67 ZM 341.25 151.17 C 342.63 151.17 344.25 153.67 344.25 155.58 344.25 157.5 343.13 159.42 341.75 159.42 340.38 159.42 338.75 156.54 338.75 155.17 338.75 153.79 339.88 151.17 341.25 151.17 ZM 388 159.42 C 389.38 159.42 391 161.92 391 163.83 391 165.75 389.88 167.67 388.5 167.67 387.13 167.67 385.5 164.79 385.5 163.42 385.5 162.04 386.63 159.42 388 159.42 ZM 399.83 182.42 C 401.21 182.42 403 185.21 403 186.58 403 187.96 401.88 190.42 400.5 190.42 399.13 190.42 398 187.96 398 186.58 398 185.21 398.46 182.42 399.83 182.42 ZM 393.83 169.92 C 395.21 169.92 397 172.71 397 174.08 397 175.46 395.88 177.92 394.5 177.92 393.13 177.92 392 175.46 392 174.08 392 172.71 392.46 169.92 393.83 169.92 ZM 395.83 159.83 C 397.21 159.83 399 162.63 399 164 399 165.38 397.88 167.83 396.5 167.83 395.13 167.83 394 165.38 394 164 394 162.63 394.46 159.83 395.83 159.83 ZM 406.83 181.83 C 408.21 181.83 410 184.63 410 186 410 187.38 408.88 189.83 407.5 189.83 406.13 189.83 405 187.38 405 186 405 184.63 405.46 181.83 406.83 181.83 ZM 390.83 147.33 C 392.21 147.33 394 150.13 394 151.5 394 152.88 392.88 155.33 391.5 155.33 390.13 155.33 389 152.88 389 151.5 389 150.13 389.46 147.33 390.83 147.33 ZM 374.58 149.42 C 375.96 149.42 377 150.46 377 151.83 377 153.21 375.88 155.67 374.5 155.67 373.13 155.67 372.83 153.79 372.83 152.42 372.83 151.04 373.21 149.42 374.58 149.42 ZM 366.83 149.58 C 368.21 149.58 369.25 150.63 369.25 152 369.25 153.38 368.13 155.83 366.75 155.83 365.38 155.83 365.08 153.96 365.08 152.58 365.08 151.21 365.46 149.58 366.83 149.58 ZM 378.33 136.08 C 379.71 136.08 380.75 137.13 380.75 138.5 380.75 139.88 379.63 142.33 378.25 142.33 376.88 142.33 376.58 140.46 376.58 139.08 376.58 137.71 376.96 136.08 378.33 136.08 ZM 386.58 136.08 C 387.96 136.08 389 137.13 389 138.5 389 139.88 387.88 142.33 386.5 142.33 385.13 142.33 384.83 140.46 384.83 139.08 384.83 137.71 385.21 136.08 386.58 136.08 ZM 369.75 137.83 C 371.13 137.83 372.17 138.88 372.17 140.25 372.17 141.63 371.04 144.08 369.67 144.08 368.29 144.08 368 142.21 368 140.83 368 139.46 368.38 137.83 369.75 137.83 ZM 393.83 139.08 C 395.21 139.08 396.25 140.13 396.25 141.5 396.25 142.88 395.13 145.33 393.75 145.33 392.38 145.33 392.08 143.46 392.08 142.08 392.08 140.71 392.46 139.08 393.83 139.08 ZM 399.08 150.83 C 400.46 150.83 401.5 151.88 401.5 153.25 401.5 154.63 400.38 157.08 399 157.08 397.63 157.08 397.33 155.21 397.33 153.83 397.33 152.46 397.71 150.83 399.08 150.83 ZM 406.75 147.08 C 408.13 147.08 409.17 148.13 409.17 149.5 409.17 150.88 408.04 153.33 406.67 153.33 405.29 153.33 405 151.46 405 150.08 405 148.71 405.38 147.08 406.75 147.08 ZM 349.08 152.42 C 350.46 152.42 351.5 153.46 351.5 154.83 351.5 156.21 350.38 158.67 349 158.67 347.63 158.67 347.33 156.79 347.33 155.42 347.33 154.04 347.71 152.42 349.08 152.42 ZM 406.58 243.83 C 407.96 243.83 409 244.88 409 246.25 409 247.63 407.88 250.08 406.5 250.08 405.13 250.08 404.83 248.21 404.83 246.83 404.83 245.46 405.21 243.83 406.58 243.83 ZM 399.58 174.42 C 400.96 174.42 402 175.46 402 176.83 402 178.21 400.88 180.67 399.5 180.67 398.13 180.67 397.83 178.79 397.83 177.42 397.83 176.04 398.21 174.42 399.58 174.42 ZM 398.08 242.83 C 399.46 242.83 400.5 243.88 400.5 245.25 400.5 246.63 399.38 249.08 398 249.08 396.63 249.08 396.33 247.21 396.33 245.83 396.33 244.46 396.71 242.83 398.08 242.83 ZM 401.75 232.08 C 403.13 232.08 404.17 233.13 404.17 234.5 404.17 235.88 403.04 238.33 401.67 238.33 400.29 238.33 400 236.46 400 235.08 400 233.71 400.38 232.08 401.75 232.08 ZM 395.5 220.83 C 396.88 220.83 397.92 221.88 397.92 223.25 397.92 224.63 396.79 227.08 395.42 227.08 394.04 227.08 393.75 225.21 393.75 223.83 393.75 222.46 394.13 220.83 395.5 220.83 ZM 362.33 199.83 C 363.71 199.83 364.75 200.88 364.75 202.25 364.75 203.63 363.63 206.08 362.25 206.08 360.88 206.08 360.58 204.21 360.58 202.83 360.58 201.46 360.96 199.83 362.33 199.83 ZM 353.5 200.58 C 354.88 200.58 355.92 201.63 355.92 203 355.92 204.38 354.79 206.83 353.42 206.83 352.04 206.83 351.75 204.96 351.75 203.58 351.75 202.21 352.13 200.58 353.5 200.58 ZM 345.5 200.33 C 346.88 200.33 347.92 201.38 347.92 202.75 347.92 204.13 346.79 206.58 345.42 206.58 344.04 206.58 343.75 204.71 343.75 203.33 343.75 201.96 344.13 200.33 345.5 200.33 ZM 337.5 201.08 C 338.88 201.08 339.92 202.13 339.92 203.5 339.92 204.88 338.79 207.33 337.42 207.33 336.04 207.33 335.75 205.46 335.75 204.08 335.75 202.71 336.13 201.08 337.5 201.08 ZM 328.33 201.83 C 329.71 201.83 330.75 202.88 330.75 204.25 330.75 205.63 329.63 208.08 328.25 208.08 326.88 208.08 326.58 206.21 326.58 204.83 326.58 203.46 326.96 201.83 328.33 201.83 ZM 320.33 203.33 C 321.71 203.33 322.75 204.38 322.75 205.75 322.75 207.13 321.63 209.58 320.25 209.58 318.88 209.58 318.58 207.71 318.58 206.33 318.58 204.96 318.96 203.33 320.33 203.33 ZM 357.83 187.17 C 359.21 187.17 360.25 188.21 360.25 189.58 360.25 190.96 359.13 193.42 357.75 193.42 356.38 193.42 356.08 191.54 356.08 190.17 356.08 188.79 356.46 187.17 357.83 187.17 ZM 352.25 175.33 C 353.63 175.33 354.67 176.38 354.67 177.75 354.67 179.13 353.54 181.58 352.17 181.58 350.79 181.58 350.5 179.71 350.5 178.33 350.5 176.96 350.88 175.33 352.25 175.33 ZM 343.5 176.08 C 344.88 176.08 345.92 177.13 345.92 178.5 345.92 179.88 344.79 182.33 343.42 182.33 342.04 182.33 341.75 180.46 341.75 179.08 341.75 177.71 342.13 176.08 343.5 176.08 ZM 369.25 173.08 C 370.63 173.08 371.67 174.13 371.67 175.5 371.67 176.88 370.54 179.33 369.17 179.33 367.79 179.33 367.5 177.46 367.5 176.08 367.5 174.71 367.88 173.08 369.25 173.08 ZM 337.75 165.08 C 339.13 165.08 340.17 166.13 340.17 167.5 340.17 168.88 339.04 171.33 337.67 171.33 336.29 171.33 336 169.46 336 168.08 336 166.71 336.38 165.08 337.75 165.08 ZM 357.5 221.08 C 358.88 221.08 359.92 222.13 359.92 223.5 359.92 224.88 358.79 227.33 357.42 227.33 356.04 227.33 355.75 225.46 355.75 224.08 355.75 222.71 356.13 221.08 357.5 221.08 ZM 332.25 152.25 C 333.63 152.25 335.25 154.75 335.25 156.67 335.25 158.58 334.13 160.5 332.75 160.5 331.38 160.5 329.75 157.63 329.75 156.25 329.75 154.88 330.88 152.25 332.25 152.25 ZM 324 153 C 325.38 153 327 155.5 327 157.42 327 159.33 325.88 161.25 324.5 161.25 323.13 161.25 321.5 158.38 321.5 157 321.5 155.63 322.63 153 324 153 ZM 316.75 153.58 C 318.13 153.58 319.75 156.08 319.75 158 319.75 159.92 318.63 161.83 317.25 161.83 315.88 161.83 314.25 158.96 314.25 157.58 314.25 156.21 315.38 153.58 316.75 153.58 ZM 308 154.25 C 309.38 154.25 311 156.75 311 158.67 311 160.58 309.88 162.5 308.5 162.5 307.13 162.5 305.5 159.63 305.5 158.25 305.5 156.88 306.63 154.25 308 154.25 ZM 300.75 155.08 C 302.13 155.08 303.75 157.58 303.75 159.5 303.75 161.42 302.63 163.33 301.25 163.33 299.88 163.33 298.25 160.46 298.25 159.08 298.25 157.71 299.38 155.08 300.75 155.08 ZM 294 156.5 C 295.38 156.5 296.25 158.58 296.25 160.5 296.25 162.42 295.88 164.75 294.5 164.75 293.13 164.75 291.5 161.88 291.5 160.5 291.5 159.13 292.63 156.5 294 156.5 ZM 335 139.5 C 336.38 139.5 338 142 338 143.92 338 145.83 336.88 147.75 335.5 147.75 334.13 147.75 332.5 144.88 332.5 143.5 332.5 142.13 333.63 139.5 335 139.5 ZM 328 142 C 329.38 142 331 144.5 331 146.42 331 148.33 329.88 150.25 328.5 150.25 327.13 150.25 325.5 147.38 325.5 146 325.5 144.63 326.63 142 328 142 ZM 319.25 141.25 C 320.63 141.25 322.25 143.75 322.25 145.67 322.25 147.58 321.13 149.5 319.75 149.5 318.38 149.5 316.75 146.63 316.75 145.25 316.75 143.88 317.88 141.25 319.25 141.25 ZM 311.5 141.75 C 312.88 141.75 314.5 144.25 314.5 146.17 314.5 148.08 313.38 150 312 150 310.63 150 309 147.13 309 145.75 309 144.38 310.13 141.75 311.5 141.75 ZM 304.25 144 C 305.63 144 307.25 146.5 307.25 148.42 307.25 150.33 306.13 152.25 304.75 152.25 303.38 152.25 301.75 149.38 301.75 148 301.75 146.63 302.88 144 304.25 144 ZM 297.5 145.5 C 298.88 145.5 300.5 148 300.5 149.92 300.5 151.83 299.38 153.75 298 153.75 296.63 153.75 295 150.88 295 149.5 295 148.13 296.13 145.5 297.5 145.5 ZM 277.5 160 C 278.88 160 280 162.08 280 164 280 165.92 279.38 168.25 278 168.25 276.63 168.25 275 165.38 275 164 275 162.63 276.13 160 277.5 160 ZM 260.25 164.75 C 261.63 164.75 261.75 166.58 261.75 168.5 261.75 170.42 262.13 173 260.75 173 259.38 173 257.75 170.13 257.75 168.75 257.75 167.38 258.88 164.75 260.25 164.75 ZM 251.5 166.33 C 252.88 166.33 254.5 168.83 254.5 170.75 254.5 172.67 253.38 174.58 252 174.58 250.63 174.58 249 171.71 249 170.33 249 168.96 250.13 166.33 251.5 166.33 ZM 254.25 174.83 C 255.63 174.83 257.25 177.33 257.25 179.25 257.25 181.17 256.13 183.08 254.75 183.08 253.38 183.08 251.75 180.21 251.75 178.83 251.75 177.46 252.88 174.83 254.25 174.83 ZM 260.75 186.33 C 262.13 186.33 263.75 188.83 263.75 190.75 263.75 192.67 262.63 194.58 261.25 194.58 259.88 194.58 258.25 191.71 258.25 190.33 258.25 188.96 259.38 186.33 260.75 186.33 ZM 269.75 184.58 C 271.13 184.58 270.75 186.33 270.75 188.25 270.75 190.17 271.63 192.83 270.25 192.83 268.88 192.83 267.25 189.96 267.25 188.58 267.25 187.21 268.38 184.58 269.75 184.58 ZM 274.25 196.25 C 275.63 196.25 277.25 198.75 277.25 200.67 277.25 202.58 276.13 204.5 274.75 204.5 273.38 204.5 271.75 201.63 271.75 200.25 271.75 198.88 272.88 196.25 274.25 196.25 ZM 267 196.75 C 268.38 196.75 270 199.25 270 201.17 270 203.08 268.88 205 267.5 205 266.13 205 264.5 202.13 264.5 200.75 264.5 199.38 265.63 196.75 267 196.75 ZM 290.5 146.5 C 291.88 146.5 293.5 149 293.5 150.92 293.5 152.83 292.38 154.75 291 154.75 289.63 154.75 288 151.88 288 150.5 288 149.13 289.13 146.5 290.5 146.5 ZM 253 189.25 C 255 190 253.75 190.5 253.25 191.75 252.75 193 254.63 193.25 253.25 193.25 251.88 193.25 250.75 193.54 250.75 192.17 250.75 190.79 251 188.5 253 189.25 ZM 245 188.5 C 247 189.25 246.5 190.75 246 192 245.5 193.25 246.38 194.75 245 194.75 243.63 194.75 242.5 193.04 242.5 191.67 242.5 190.29 243 187.75 245 188.5 ZM 237.5 190 C 239.5 190.75 239 192.25 238.5 193.5 238 194.75 238.88 196.25 237.5 196.25 236.13 196.25 235 194.54 235 193.17 235 191.79 235.5 189.25 237.5 190 ZM 231.75 180.75 C 233.75 181.5 233.25 181.5 232.75 182.75 232.25 184 233.63 184.75 232.25 184.75 230.88 184.75 230.5 183.63 230.5 182.25 230.5 180.88 229.75 180 231.75 180.75 ZM 250.25 198.33 C 252.25 199.08 251.75 200.58 251.25 201.83 250.75 203.08 251.63 204.58 250.25 204.58 248.88 204.58 247.75 202.88 247.75 201.5 247.75 200.13 248.25 197.58 250.25 198.33 ZM 223 182.5 C 225 183.25 224 183.25 223.5 184.5 223 185.75 223.88 186 222.5 186 221.13 186 221.25 185.38 221.25 184 221.25 182.63 221 181.75 223 182.5 ZM 238.5 213.83 C 240.5 214.58 240 216.08 239.5 217.33 239 218.58 239.88 220.08 238.5 220.08 237.13 220.08 236 218.38 236 217 236 215.63 236.5 213.08 238.5 213.83 ZM 229 215.25 C 231 216 230.5 217.5 230 218.75 229.5 220 230.38 221.5 229 221.5 227.63 221.5 226.5 219.79 226.5 218.42 226.5 217.04 227 214.5 229 215.25 ZM 272.5 209.08 C 274.5 209.83 274 211.33 273.5 212.58 273 213.83 273.88 215.33 272.5 215.33 271.13 215.33 270 213.63 270 212.25 270 210.88 270.5 208.33 272.5 209.08 ZM 282.75 149 C 284.75 149.75 284.25 151.25 283.75 152.5 283.25 153.75 284.13 155.25 282.75 155.25 281.38 155.25 280.25 153.54 280.25 152.17 280.25 150.79 280.75 148.25 282.75 149 ZM 242.75 227 C 244.13 227 244.67 226.54 244.67 227.92 244.67 229.29 244.38 230.25 243 230.25 241.63 230.25 241.5 230.38 241.5 229 241.5 227.63 241.38 227 242.75 227 ZM 256.75 236.75 C 258.13 236.75 258.67 236.29 258.67 237.67 258.67 239.04 258.38 240 257 240 255.63 240 255.5 240.13 255.5 238.75 255.5 237.38 255.38 236.75 256.75 236.75 ZM 249.5 238 C 250.88 238 250 237.13 250 238.5 250 239.88 250.88 238.75 249.5 238.75 248.13 238.75 249.25 240.38 249.25 239 249.25 237.63 248.13 238 249.5 238 ZM 241 239 C 242.38 239 241.25 238.13 241.25 239.5 241.25 240.88 242.63 240 241.25 240 239.88 240 240 241.38 240 240 240 238.63 239.63 239 241 239 ZM 234.5 229.5 C 235.88 229.5 234.75 228.88 234.75 230.25 234.75 231.63 235.13 230 233.75 230 232.38 230 234 231.38 234 230 234 228.63 233.13 229.5 234.5 229.5 ZM 261 246.75 C 262.38 246.75 261.75 246.13 261.75 247.5 261.75 248.88 262.63 248.5 261.25 248.5 259.88 248.5 260.75 249.88 260.75 248.5 260.75 247.13 259.63 246.75 261 246.75 ZM 265 236 C 266.38 236 266.92 235.54 266.92 236.92 266.92 238.29 266.63 239.25 265.25 239.25 263.88 239.25 263.75 239.38 263.75 238 263.75 236.63 263.63 236 265 236 ZM 232 202.75 C 233.38 202.75 233.92 202.29 233.92 203.67 233.92 205.04 233.63 206 232.25 206 230.88 206 230.75 206.13 230.75 204.75 230.75 203.38 230.63 202.75 232 202.75 ZM 224.25 205 C 225.63 205 226.17 204.54 226.17 205.92 226.17 207.29 225.88 208.25 224.5 208.25 223.13 208.25 223 208.38 223 207 223 205.63 222.88 205 224.25 205 ZM 216.25 205.75 C 217.63 205.75 216.5 206.13 216.5 207.5 216.5 208.88 217.63 207.75 216.25 207.75 214.88 207.75 215.5 208.63 215.5 207.25 215.5 205.88 214.88 205.75 216.25 205.75 ZM 213.75 184 C 215.13 184 215.67 183.54 215.67 184.92 215.67 186.29 215.38 187.25 214 187.25 212.63 187.25 212.5 187.38 212.5 186 212.5 184.63 212.38 184 213.75 184 ZM 220.58 218.33 C 221.96 218.33 222.5 217.88 222.5 219.25 222.5 220.63 222.21 221.58 220.83 221.58 219.46 221.58 219.33 221.71 219.33 220.33 219.33 218.96 219.21 218.33 220.58 218.33 ZM 213.5 218.5 C 214.88 218.5 215.42 218.04 215.42 219.42 215.42 220.79 215.13 220.5 213.75 220.5 212.38 220.5 212.5 221.13 212.5 219.75 212.5 218.38 212.13 218.5 213.5 218.5 ZM 206.25 199 C 207.63 199 206.92 197.79 206.92 199.17 206.92 200.54 207.13 200.25 205.75 200.25 204.38 200.25 204.5 200.63 204.5 199.25 204.5 197.88 204.88 199 206.25 199 ZM 274.33 153.58 C 275.71 153.58 276.25 153.13 276.25 154.5 276.25 155.88 275.96 156.83 274.58 156.83 273.21 156.83 273.08 156.96 273.08 155.58 273.08 154.21 272.96 153.58 274.33 153.58 ZM 396.08 195.83 C 397.46 195.83 397 196.88 397 198.25 397 199.63 397.38 202.08 396 202.08 394.63 202.08 394.33 200.21 394.33 198.83 394.33 197.46 394.71 195.83 396.08 195.83 ZM 403.33 207.08 C 404.71 207.08 405.75 208.13 405.75 209.5 405.75 210.88 404.63 213.33 403.25 213.33 401.88 213.33 401.58 211.46 401.58 210.08 401.58 208.71 401.96 207.08 403.33 207.08 ZM 421.08 224.33 C 422.46 224.33 421 225.13 421 226.5 421 227.88 422.38 230.58 421 230.58 419.63 230.58 419.33 228.71 419.33 227.33 419.33 225.96 419.71 224.33 421.08 224.33 ZM 415.08 224.08 C 416.46 224.08 417.5 225.13 417.5 226.5 417.5 227.88 416.38 230.33 415 230.33 413.63 230.33 413.33 228.46 413.33 227.08 413.33 225.71 413.71 224.08 415.08 224.08 ZM 426.83 227.33 C 428.21 227.33 427.25 228.88 427.25 230.25 427.25 231.63 428.13 233.58 426.75 233.58 425.38 233.58 425.08 231.71 425.08 230.33 425.08 228.96 425.46 227.33 426.83 227.33 ZM 411.25 136 C 412.63 136 411.25 136.63 411.25 138 411.25 139.38 413.38 141.08 412 141.08 410.63 141.08 410.33 139.21 410.33 137.83 410.33 136.46 409.88 136 411.25 136 Z"/><path fill="#715f4b" transform="scale(1.0666667)" d="M 551.57 215.57 C 554.01 213.26 568.7 194.07 560.07 194.07 557.07 194.07 559.57 193.07 557.07 189.57 554.57 186.07 551.07 177.57 533.07 166.57 528.47 163.76 548.92 180.01 548.07 182.57 547.07 185.57 546.07 185.57 538.57 199.57 536.27 203.86 547.07 190.57 553.57 189.57 558.02 188.88 547.07 189.07 531.07 216.57 529.25 219.68 548.57 199.57 557.07 196.57 559.82 195.6 545.57 208.57 543.57 213.07 541.52 217.68 555.07 206.07 555.07 206.07 555.07 206.07 515.57 249.57 551.57 215.57 ZM 294.08 145.33 C 293.08 150.58 295.08 154.33 295.08 154.33 295.08 154.33 289.58 152.08 291.58 145.83 291.9 144.85 288.83 145.08 288.58 142.58 288.47 141.48 282.33 151.83 288.33 156.33 289.6 157.28 285.08 155.83 284.58 153.58 284.33 152.45 282.58 152.58 282.83 149.08 282.92 147.88 281.08 145.83 281.08 145.83 281.08 145.83 278.83 147.58 277.33 150.08 276.6 151.3 276.29 145.12 279.33 142.08 279.83 141.58 276.08 140.58 275.33 137.58 274.97 136.12 272.58 143.58 272.58 147.08 272.58 149.56 269.97 144.09 269.83 142.83 269.58 140.58 266.83 140.83 266.83 140.83 266.83 140.83 263.83 137.83 266.33 133.33 267.25 131.69 257.17 136.5 262.83 145.5 264.52 148.18 256.83 143.83 257.83 138.17 258.22 135.98 256.17 139.5 255.17 134.83 254.94 133.79 248.17 142.5 255.5 148.5 258.15 150.66 247.5 149.17 249.17 142.17 249.69 139.99 247.83 138.83 247.83 138.83 247.83 138.83 242.83 143.83 245.83 149.17 247.12 151.46 240.17 147.83 240.17 141.5 240.17 139.12 234.5 150.5 241.17 154.17 243.95 155.7 241.5 156.83 241.17 162.17 241.04 164.16 239.5 158.83 239.5 158.83 L 235.5 155.5 C 235.5 155.5 234.5 152.17 235.5 148.83 235.98 147.24 233.5 148.5 233.17 145.5 233 144.02 227.5 153.83 231.83 158.83 232.27 159.34 227.5 157.17 228.17 151.5 228.41 149.46 224.83 149.5 224.83 149.5 224.83 149.5 219.5 155.17 225.5 160.5 227.56 162.33 217.17 161.83 221.17 155.83 223.45 152.4 219.17 155.5 218.17 151.83 217.84 150.63 211.5 159.83 217.83 166.17 219.01 167.35 214.17 165.17 214.17 165.17 214.17 165.17 209.83 175.17 214.5 179.83 215.25 180.58 209.83 175.5 210.17 171.83 210.37 169.57 206.5 171.5 205.83 168.5 205.54 167.17 205.5 162.17 205.5 162.17 L 202.83 158.5 C 202.83 158.5 198.5 165.83 201.5 172.17 202.21 173.67 197.5 169.17 197.17 163.5 197.02 161 193.17 170.17 195.17 175.5 195.91 177.47 189.83 171.17 189.83 166.17 189.83 164.83 184.83 172.5 187.83 176.83 189.38 179.06 185.5 176.83 185.5 176.83 185.5 176.83 182.5 182.5 185.17 187.5 185.66 188.43 182.17 184.5 181.83 181.5 181.64 179.79 180.17 180.5 178.5 178.17 177.82 177.21 173.83 184.83 177.83 189.83 178.87 191.13 174.83 189.5 174.5 183.17 174.41 181.37 171.83 178.83 171.83 178.83 171.83 178.83 167.5 174.83 166.5 171.83 165.8 169.75 163.17 178.83 167.83 183.5 169.04 184.7 163.41 181.86 162.33 174.33 162 172 159.67 172 159.67 172 159.67 172 157.33 176.33 156.67 179.67 156.26 181.68 153.67 177 153 174 152.63 172.35 150.33 177.67 150.67 180 150.89 181.59 148 182.67 148 182.67 148 182.67 146 181 147 177.67 147.37 176.45 145 176.67 144 174 143.58 172.89 141.67 179.33 142.67 183.67 143.13 185.66 132.57 191.57 123.57 192.07 119.72 192.28 113.07 185.57 113.57 170.57 113.76 164.64 103.57 174.07 112.57 206.07 113.54 209.54 81.9 156.87 124.07 153.57 200.57 147.57 198.6 143.25 196.07 141.57 193.3 139.72 203.57 130.07 179.07 129.07 154.57 128.07 201.72 127.74 201.57 127.07 199.07 116.07 215.57 115.07 219.07 112.07 231.69 101.25 250.57 95.07 251.57 93.57 253.53 90.62 238.08 71.8 241.57 75.57 245.05 79.33 254.07 89.07 255.57 90.57 257.02 92.02 266.07 90.07 266.07 88.57 266.07 82.55 250.01 61.01 252.07 63.07 258.57 69.57 269.45 85.55 270.57 85.57 280 85.67 278.96 84.72 278.67 82.33 277.67 74.33 262.92 53.96 263.67 54 270.33 54.33 275.66 64.27 274.67 63.67 273.68 63.06 269.35 58.86 270.67 60.67 279.67 73 284.77 87.18 285.33 85.67 287.67 79.33 291 84.67 291 84.67 291 84.67 289.75 73.83 288 73.33 283.33 72 283.42 65.54 286 66.33 290.33 67.67 290 71 290.33 73.67 291.31 81.45 299.67 82 299.67 82 299.67 82 296.53 70.72 297.33 72.33 300 77.67 313.71 83.33 314.07 81.57 315.07 76.57 313.7 68.63 316.57 72.07 321.57 78.07 330.45 82.54 332.57 80.07 335.57 76.57 329.15 63.35 331.57 67.07 338.07 77.07 343.73 80.23 345.07 78.57 347.07 76.07 345.33 68.22 348.07 70.57 351.57 73.57 358.25 79.87 360.07 78.57 367.07 73.57 370.23 82.44 376.57 80.07 392.57 74.07 400.11 84.44 403.07 85.57 430.63 96.06 441.94 100.7 465.89 114.28 489.84 127.86 467.57 112.57 478.07 122.07 488.57 131.57 496.07 145.07 496.07 145.07 496.07 145.07 507.07 146.98 504.57 147.07 490.57 147.57 472.6 156.35 474.57 155.57 489.57 149.57 498.97 148.93 509.07 152.57 534.07 161.57 530.81 184.43 528.07 189.07 526.47 191.76 504.9 196.53 516.73 186.55 528.57 176.57 514.1 174.92 516.57 162.57 516.82 161.29 509.11 146.64 490.07 153.57 487.68 154.43 456.57 190.57 517.07 195.07 522.75 195.49 507.07 200.57 497.57 198.57 488.07 196.57 481.81 187.18 483.07 191.57 483.7 193.78 478.79 183.98 476.07 185.57 470.07 189.07 463.57 187.07 463.57 187.07 463.57 187.07 463.57 202.07 452.57 191.07 450.8 189.3 441.07 197.57 439.57 188.57 439.02 185.3 445.57 186.07 447.57 180.07 448.49 177.3 446.08 169.16 443.07 168.07 437.57 166.07 428.57 160.07 429.57 174.57 429.82 178.3 426.57 171.57 423.07 185.07 422.13 188.68 426.7 190.02 428.57 190.57 430.43 191.11 430.17 198 432.67 202 434.2 204.45 419.07 190.07 415.57 185.57 413.28 182.62 406.97 178.82 403.57 174.57 401.57 172.07 399.07 160.07 410.07 157.57 414.5 156.56 420.07 161.07 424.07 161.57 425.86 161.79 439.57 144.07 466.07 157.07 468.48 158.25 455.57 145.07 422.57 157.07 419.71 158.11 402.47 146.98 399.57 169.07 397.07 188.07 397.83 175.17 397.83 175.17 397.83 175.17 401.83 179.83 402.17 179.83 402.5 179.83 403.49 186.68 401.83 185.5 397.17 182.17 397.95 178.12 397.17 178.83 389.83 185.5 397.75 194.28 396.83 193.5 383.83 182.5 397.25 179.1 396.17 177.83 390.5 171.17 395.13 166.13 392.83 166.5 384.5 167.83 390.73 174.46 389.5 175.17 387.17 176.5 386.68 179.47 385.83 178.83 381.83 175.83 384.5 169.83 384.5 169.83 L 381.17 173.5 C 381.17 173.5 382.08 182.36 380.5 181.5 376.83 179.5 373.73 172.4 379.73 170.73 381.88 170.14 367.73 165.4 373.4 179.07 374.4 181.48 364.4 175.07 373.73 168.73 375.79 167.34 371.07 166.73 373.07 160.07 373.69 157.99 370.4 159.73 369.4 156.07 369.04 154.76 364.73 165.07 369.07 169.4 370.07 170.4 360.07 171.73 365.73 160.07 366.82 157.84 366.73 158.07 367.73 156.73 368.02 156.36 365.4 152.4 367.4 147.73 368.29 145.66 365.73 147.07 364.73 143.73 364.39 142.58 360.91 148.28 362.73 157.4 363.07 159.07 360.4 156.73 357.73 160.4 356.88 161.58 359.73 157.07 359.73 157.07 359.73 157.07 355.4 152.07 360.73 145.73 362.57 143.56 359.4 144.07 360.4 138.07 360.72 136.17 357.73 137.23 355.48 134.23 354.55 132.99 353.73 141.48 357.73 146.73 359.66 149.26 353.98 145.23 353.98 144.98 353.98 144.73 350.98 150.48 354.98 157.23 356.55 159.88 347.73 161.73 348.73 152.48 348.94 150.53 345.73 151.23 344.73 146.48 344.36 144.72 340.73 151.23 346.98 158.48 347.8 159.43 350.17 157.06 349.73 158.23 347.23 164.98 351.93 170.77 351.23 170.48 342.23 166.73 345.85 161.58 344.98 161.23 342.48 160.23 342.59 158.32 341.98 158.98 336.73 164.73 342.21 169.51 340.48 168.73 335.48 166.48 337.16 162.82 336.23 162.48 333.48 161.48 334.35 159.13 332.48 161.23 326.48 167.98 334.73 174.73 334.23 174.48 326.52 170.63 328.57 162.85 328.23 162.73 319.98 159.98 323.86 154.9 323.48 154.48 320.73 151.48 320.7 149.31 320.23 149.48 316.23 150.98 318.23 159.48 316.98 158.23 313.55 154.8 313.08 146.63 311.98 148.48 307.23 156.48 314.48 160.23 312.73 159.73 301.93 156.65 309.16 151.35 308.23 150.98 299.98 147.73 305.48 164.23 304.23 163.48 297.75 159.59 300.48 153.23 300.48 153.23 300.48 153.23 293.23 148.98 297.23 142.98M 418.57 202.07 C 420.57 201.57 426.57 206.07 430.07 215.07 430.47 216.11 439.07 217.57 441.57 227.07 442.62 231.09 458.07 234.07 448.57 238.57 445.52 240.01 437.35 231.7 431.57 222.07 430.07 219.57 415.5 202.83 418.57 202.07 ZM 450.57 170.57 C 452.63 169.95 455.57 169.5 455.57 177.57 455.57 180.57 460.57 166.07 462.07 180.57 462.25 182.35 460.07 185.57 456.07 181.57 454.99 180.49 452.57 185.07 450.57 183.07 449.56 182.06 445.57 172.07 450.57 170.57 ZM 324.07 44.57 C 324.07 44.57 338.07 48.07 337.57 57.57 337.32 62.25 323.52 62.58 321.57 59.07 319.07 54.57 317.57 41.57 311.57 29.07 308.15 21.94 324.07 44.57 324.07 44.57 ZM 301.98 137.23 C 301.88 133.66 294.98 148.98 302.98 151.48 303.46 151.63 302.98 148.23 304.98 145.73 305.7 144.84 302.23 145.98 301.98 137.23 ZM 308.23 137.48 C 301.98 145.73 309.98 149.44 309.98 148.48 309.98 145.48 312.05 145.75 311.48 144.98 308.73 141.23 309 136.47 308.23 137.48 ZM 315.23 136.48 C 310.23 145.98 318.73 147.73 318.73 147.73 318.73 147.73 318.73 142.98 318.73 141.48 318.73 139.66 315.71 135.57 315.23 136.48 ZM 327.23 144.23 C 328.43 143.13 324.98 142.23 323.73 138.73 323.19 137.2 318.98 145.23 323.98 149.98 324.56 150.53 324.23 146.98 327.23 144.23 ZM 334.98 144.73 C 334.77 143.5 328.86 155.53 338.73 159.48 339.98 159.98 336.23 158.48 338.73 152.73 339.41 151.19 336.23 151.98 334.98 144.73 ZM 327.23 147.98 C 327.23 147.98 322.23 155.48 329.23 158.98 331.73 160.23 330.23 153.73 330.23 153.73 L 327.23 147.98 ZM 349.98 138.98 C 349.98 138.98 346.21 132.56 345.73 133.98 342.48 143.73 348.73 146.48 348.73 146.48 L 349.98 138.98 ZM 379.53 158.13 C 379.58 157.86 376.13 163.93 381.33 168.53 383.31 170.28 379.73 166.53 382.13 160.93 382.89 159.18 379.13 160.33 379.53 158.13 ZM 378.13 149.13 C 375.53 147.33 375.87 143.93 375.13 145.13 369.13 154.93 377.46 158.84 377.33 158.13 376.13 151.53 379.16 149.84 378.13 149.13 ZM 360.93 167.13 C 360.93 167.13 363.17 171.47 361.13 170.93 354.33 169.13 358.53 162.93 358.53 162.93 L 360.93 167.13 ZM 386.73 150.93 C 386.73 150.93 383.2 145.64 382.53 146.93 377.13 157.33 385.13 159.13 385.13 159.13 L 386.73 150.93 ZM 302.33 174.58 C 302.43 174.81 294.83 172.08 301.33 166.08 302.91 164.63 300.83 171.08 302.33 174.58 ZM 283.83 170.17 C 284.05 170.42 271.83 164.17 282.83 155.5 285.72 153.23 276.5 161.5 283.83 170.17 ZM 339.83 134.5 C 335.5 130.83 338.51 125.55 336.83 128.17 331.5 136.5 338.4 143.59 338.17 140.5 337.83 136.17 341.17 135.63 339.83 134.5 ZM 274.17 134.83 C 270.83 133.17 273.03 128.41 271.5 130.17 264.83 137.83 271.5 139.5 271.5 139.5 271.5 139.5 275.37 135.43 274.17 134.83 ZM 270.83 161.83 C 272.66 164.21 260.83 155.5 270.83 149.83 273.52 148.31 264.17 153.17 270.83 161.83 ZM 299.17 175.17 C 300.5 172.5 289.5 182.5 298.83 189.17 301.68 191.2 292.63 188.23 299.17 175.17 ZM 339.83 173.5 C 340.42 171.94 329.17 180.17 342.17 186.83 343.1 187.31 336.17 183.17 339.83 173.5 ZM 345.5 195.5 C 347.06 196.59 338.17 194.17 343.5 188.17 344.76 186.75 342.17 193.17 345.5 195.5 ZM 349.83 187.5 C 351.79 190.03 338.17 182.5 348.17 174.83 350.7 172.89 344.17 180.17 349.83 187.5 ZM 372.5 139.83 C 369.83 137.83 370.6 133.05 368.83 135.17 363.83 141.17 369.44 148.9 369.83 146.17 370.5 141.5 373.69 140.72 372.5 139.83 ZM 361.17 130.17 C 358.83 135.5 363.5 137.17 363.5 137.17 363.5 137.17 361.91 128.48 361.17 130.17 ZM 326.5 129.17 C 324.17 126.17 325.97 120.97 323.83 122.83 316.17 129.5 323.96 136.99 324.17 134.17 324.5 129.5 327.42 130.34 326.5 129.17 ZM 311.83 161.83 C 309.59 165.04 304.83 171.83 311.17 177.5 311.95 178.2 306.96 174.89 306.17 173.5 303.5 168.83 314.08 158.62 311.83 161.83 ZM 294.17 141.5 C 294.67 142.23 293.6 146.08 291.5 143.83 286.5 138.5 293.83 132.5 293.83 132.5 293.83 132.5 291.83 138.17 294.17 141.5 ZM 260.17 123.83 C 253.17 132.83 259.5 136.83 259.5 136.83 259.5 136.83 262.91 132.5 262.17 131.83 258.83 128.83 261.97 121.52 260.17 123.83 ZM 246.17 162.83 C 246.5 160.83 238.5 170.83 249.5 177.83 250.91 178.73 244.09 175.31 246.17 162.83 ZM 238.5 166.83 C 239.17 163.83 233.17 172.5 241.17 177.83 242.04 178.42 236.64 175.2 238.5 166.83 ZM 328.17 132.83 C 323.17 141.83 332.24 142.7 331.17 142.17 326.5 139.83 328.68 131.91 328.17 132.83 ZM 383.83 180.83 C 383.83 180.83 379.83 187.17 385.83 191.83 386.42 192.29 385.5 189.5 386.5 186.5 386.98 185.07 383.83 180.83 383.83 180.83 ZM 395.17 166.83 C 395.17 166.83 396.17 163.17 396.83 160.17 397.06 159.14 392.85 151.35 392.5 152.5 389.83 161.17 395.17 166.83 395.17 166.83 ZM 333.17 123.5 C 327.5 130.5 333.5 132.83 333.17 132.17 331.23 128.29 334.06 122.4 333.17 123.5 ZM 363.5 114.17 C 357.17 120.5 364.89 126.82 363.83 124.17 361.83 119.17 364.93 112.73 363.5 114.17 ZM 328.83 127.83 C 328.83 127.83 331.86 122.47 330.5 121.5 328.17 119.83 327.68 115.06 327.5 115.5 324.83 122.17 328.83 127.83 328.83 127.83 ZM 251.17 138.5 C 244.83 134.17 251.58 124.43 250.83 127.17 248.83 134.5 252.04 139.1 251.17 138.5 ZM 212.5 161.83 C 212.5 161.83 210.56 157.38 209.83 158.5 203.5 168.17 207.67 168.38 210.17 168.5 212.66 168.62 212.5 161.83 212.5 161.83 ZM 172.83 168.17 C 171.55 165.78 169.5 174.83 174.83 178.83 175.68 179.47 175.17 175.83 177.83 172.83 178.95 171.58 175.17 172.5 172.83 168.17 ZM 216 148.33 C 213.67 146.67 215.58 140.73 214.33 142.33 207.33 151.33 213.59 156.33 213.67 155.33 214 151 217.27 149.24 216 148.33 ZM 192 157.33 C 188.33 164 193.48 167.96 193.33 167.67 191 163 193.29 154.99 192 157.33 ZM 292 167 C 292 167 287.33 173.67 292.33 176.33 294.94 177.73 292 167 292 167 ZM 282.33 176 C 281.55 175.02 278.33 175 281.67 171 282.47 170.03 283.12 176.98 282.33 176 ZM 249.67 151.67 C 249.67 151.67 248.33 158 253.33 161.33 255.48 162.77 252.67 165 255.33 170.67 256.35 172.83 252 169.67 251 165 250.63 163.26 248.33 161.86 247.67 160.67 246 157.67 249.67 151.67 249.67 151.67 ZM 266.67 130.33 C 263.33 127.33 267 122 267 122 267 122 268.22 131.73 266.67 130.33 ZM 407.67 197 411 203 C 411 203 409 204.25 408.33 204.67 407.67 205.08 407.67 197 407.67 197 ZM 442 198 C 442 198 439.03 200.18 437.67 201.67 434 205.67 438.77 211.38 438.67 209.67 438.33 204 442.33 202 442 203.67 440.03 213.5 449.33 219 448.33 218.33 443.56 215.15 443 207 445 208.67 449.36 212.3 457.27 216.77 456.67 216.33 449.33 211 450 207 450 207 450 207 438.33 199.67 449.67 195.33 451.93 194.47 442 198 442 198 ZM 460 198.33 C 460.47 198.33 460.33 200.67 458.67 209 458.08 211.95 454.33 198.33 460 198.33 ZM 299 57.67 C 300 55.99 305.67 56 305 62.67 304.79 64.81 296 62.67 299 57.67 ZM 271.33 77.67 C 272.5 76.1 279.67 78 275.67 82.67 274.62 83.88 267.33 83 271.33 77.67 ZM 251.33 75 C 251.33 75 257.67 74.67 257 82.67 256.8 85.04 253 83.33 251 80.33 250.11 78.99 251.33 75 251.33 75 ZM 345.33 43.33 C 344.21 38.97 347.33 54 355.33 58.33 356.54 58.99 357 51 353 30.33 352.74 28.98 362.57 57.06 357.67 60.33 356.67 61 360 65.67 356.33 69 354.71 70.47 352 67.33 354.33 63.33 355.22 61.81 350.67 64 345.33 43.33 ZM 296 44.33 C 297 42.66 303.43 43.09 301 49.33 298.67 55.33 293 49.33 296 44.33 ZM 310.33 48.67 C 311.34 46.99 320 46 314.67 53.67 313.44 55.43 307.33 53.67 310.33 48.67 ZM 234.33 55.67 C 238.67 55.33 247.67 67.33 247 69.67 246.18 72.53 231.36 55.9 234.33 55.67 ZM 261.67 67 C 262.67 65.33 264.33 70 266.33 73 267.53 74.79 258.67 72 261.67 67 Z"/><path stroke="#58483e" transform="scale(1.0666667)" d="M 557.17 189.67 C 554.67 186.17 551.17 177.67 533.17 166.67 528.57 163.86 524.29 157.75 510.67 148.67 504.67 144.67 491.17 119.17 403.17 85.67 400.21 84.54 410.17 73.17 406.67 54.67 406.11 51.72 405.67 70.17 396.17 68.67 393.2 68.2 398.67 55.17 388.17 37.17 386.39 34.11 393.17 48.67 381.17 58.17 378.88 59.98 379.17 32.67 369.17 19.67 367.21 17.13 374.17 30.67 362.17 39.67 360.01 41.28 356.67 16.67 346.17 7.67 343.77 5.61 352.67 21.67 342.17 35.17 341.25 36.35 335.17 18.67 326.67 9.67 324.19 7.05 332.67 20.17 320.67 33.67 319.3 35.21 321.17 29.67 304.67 11.67 302.76 9.58 311.67 28.17 302.67 37.17 301.21 38.62 291.17 21.17 286.17 19.67 285.1 19.35 289.67 40.67 281.17 40.17 279.17 40.05 274.67 30.67 263.67 22.67 261.31 20.95 273.17 36.67 262.17 43.17 260.88 43.93 253.17 32.67 244.17 27.17 241.75 25.69 256.17 48.67 238.67 46.67 235.69 46.33 230.67 42.17 225.67 37.67 222.73 35.02 240.67 58.67 224.67 52.17 221.3 50.8 207.17 34.67 203.17 44.17 202.12 46.65 195.17 39.67 191.67 48.17 190.51 50.98 182.17 45.17 177.17 53.67 175.2 57.01 167.17 52.67 165.17 60.67 164.32 64.04 153.67 63.67 154.17 70.17 154.45 73.79 141.17 72.17 145.67 80.67 147.25 83.65 134.67 88.67 141.67 92.67 144.41 94.24 134.17 93.17 140.67 98.67 141.83 99.65 134.67 104.17 141.67 111.17 143.88 113.38 137.67 117.17 144.67 119.67 146.79 120.42 141.17 125.67 153.17 133.67 156.57 135.94 152.17 137.67 159.67 140.67 161.88 141.55 149.17 146.17 196.17 141.67 201.07 141.2 198.17 148.67 124.17 153.67 119.65 153.97 97.17 138.17 82.17 130.67 76.93 128.05 34.86 100.7 33.17 109.17 32.67 111.67 28.67 107.17 26.17 111.17 25.2 112.71 17.17 110.67 17.67 120.67 17.83 123.85 13.17 127.17 15.17 138.67 15.95 143.14 12.67 147.67 18.67 154.67 21.33 157.78 15.67 160.67 23.17 168.17 25.68 170.68 23.67 173.67 29.67 178.67 32.04 180.64 31.17 184.67 35.17 189.67 37.09 192.07 26.17 195.67 29.17 197.67 31.25 199.05 24.17 198.67 21.67 209.67 20.88 213.12 13.17 219.67 16.67 243.67 17.1 246.64 16.67 260.67 25.67 263.67 26.14 263.82 27.17 268.17 36.17 267.17 38.92 266.86 39.17 268.17 42.17 266.67 43.51 265.99 33.17 277.17 95.17 238.67 99.2 236.16 107.67 232.67 126.17 223.67 129.01 222.28 195.23 221.83 201.17 236.67 202.17 239.17 160.26 229.95 163.67 240.17 164.17 241.67 147.67 249.17 153.67 254.67 154.83 255.74 144.67 261.67 149.17 269.17 149.68 270.02 141.17 272.17 147.17 283.67 148.86 286.91 144.17 294.17 160.67 307.67 161.53 308.37 161.17 311.17 169.67 314.67 172.3 315.75 167.67 318.67 186.17 322.67 190.65 323.64 189.67 329.67 215.67 329.67 218.17 329.67 216.67 336.67 232.67 323.17 233.75 322.25 239.17 324.67 238.17 329.17 237.73 331.15 255.17 321.17 270.17 300.17 271.81 297.87 273.67 314.17 273.17 324.67 273.05 327.21 285.87 311.57 291.17 295.67 292.17 292.67 297.67 300.17 300.67 310.17 301.18 311.89 304.67 300.67 302.17 279.67 301.9 277.45 337.17 278.67 366.67 280.67 368.66 280.8 345.4 292.08 350.17 293.67 351.67 294.17 343.67 296.17 345.67 300.17 346.62 302.07 342.67 304.17 344.17 307.17 344.97 308.77 339.67 315.17 344.17 317.67 346.46 318.94 341.67 320.67 346.17 323.67 347.48 324.54 344.17 326.67 347.17 329.17 348.24 330.06 348.67 337.17 354.67 341.67 357.58 343.85 354.67 345.17 362.17 350.67 364.53 352.4 359.17 350.67 377.17 367.17 377.99 367.92 377.96 373.06 379.67 378.17 380.17 379.67 388.17 375.67 398.17 342.17 398.9 339.72 400.67 344.67 400.67 344.67 400.67 344.67 405.67 354.17 407.67 282.67 407.72 280.61 419.17 284.17 455.17 271.17 461.56 268.86 498.67 257.67 501.17 249.67 502.04 246.88 515.67 249.67 551.67 215.67 554.11 213.36 568.8 194.17 560.17 194.17 557.17 194.17 559.67 193.17 557.17 189.67 ZM 434.5 142 C 436.5 143 358 82.5 210.5 169.5 190.84 181.1 147 178.5 124.5 183.5 123.52 183.72 196 179.5 210 171.5 226.47 162.09 338.5 94 434.5 142 ZM 525.17 223 C 525.17 223 535.5 214.67 536.83 213.33 559.08 191.09 559.46 196.97 559.17 195.33 558.17 189.67 554.8 187.6 554.17 188 528.5 204.33 524 221.31 524.17 220.67 526.83 210.33 534.5 204 534.5 204 534.5 204 532.83 206.33 530.5 206 511.64 203.31 519.46 223.53 520.5 225 524.5 230.67 538.9 215.52 540.83 214.67 552.17 209.67 558.5 203 558.5 203 558.5 203 556.5 215 513 240.5 498.64 248.92 496 251.5 468 248.5 454.59 247.06 455 239 459.5 233.5 462.2 230.2 463 214.5 463 214.5 463 214.5 455.5 251 506 239.5 510.49 238.48 463.5 246 467 178 467.13 175.45 460.5 252 446.5 242 444.03 240.23 431.5 236.5 427.5 225.5 426.96 224.01 414.57 210.83 410 188 409.5 185.5 452.5 230 452.5 230 452.5 230 410 187.52 410 182 410 179.5 389.69 177.77 407 157 409.5 154 413 155 422 158 425.57 159.19 442 142.5 466.5 155M 521.83 190 C 537.83 168.67 509.83 158.33 507.5 158.33 486.83 158.33 492.83 168.67 491.5 165.67 490.64 163.73 496.25 157.47 495.17 158 483.5 163.67 484.11 175.34 484.5 177.33 489.83 204.33 516.17 196.67 519.5 195 525.29 192.11 540.5 171.33 510.17 155 501.13 150.13 465.17 156.67 488.17 193.33 488.56 193.96 502.17 203 517.17 199.33M 532.5 172.33 C 531.17 175.67 533.17 177.49 533.17 179.67 533.17 181.67 560.17 189 539.5 174 537.83 172.79 533.31 170.32 532.5 172.33 ZM 410.83 244.67 C 410.83 244.67 389.83 252.67 351.83 241.33 349.1 240.52 347.5 241 344.83 237.33 343.65 235.7 334.5 234 314.83 206 312.94 203.3 307.17 200.33 306.83 192 306.67 187.97 295.5 185.33 306.83 171.67 310.08 167.75 315.83 163.33 325.17 164.67 326.49 164.86 325.5 154.67 417.83 214 418.96 214.72 401.17 220 408.83 239.33 409.82 241.81 402.5 232 406.83 219.33M 406 283 C 400.48 283 393.47 283.71 384 281 380.5 280 371.5 281 371.5 281 L 387 284 C 387 284 362.5 285 349 297 346.82 298.94 375.5 286.5 384 286.5 386.06 286.5 365 295.5 346.5 315.5 344.8 317.34 386.95 289.44 390 287 392.5 285 380 298.5 352 332.5 350.41 334.43 369 320 396.5 287 397.86 285.37 375 320.5 364 349.5 363.44 350.98 373 345.5 397.5 289.5 398.4 287.45 394 306.5 378 367.5 377.72 368.58 389 364 401.5 286.5 401.9 284.03 399.27 328.37 401 340.5 401.5 344 406.5 283 406 283 ZM 401.67 84.83 C 401.67 84.83 406.67 71.83 406.67 56.5 406.67 53.75 403.67 75.83 398 81.17 397.46 81.68 395.67 80.5 394.67 79.17 394.08 78.39 397 51.17 389.33 41.83 388.73 41.1 392.33 73.17 389.67 77.5M 382 81.5 C 382 81.5 379 33.17 370.33 23.17 369.06 21.7 379 53.17 376 78.5 375.84 79.82 370 77.17 368.33 73.5 367.39 71.42 358.33 19.5 347 9.5 345.1 7.82 365 49.17 360.33 76.17 360.22 76.82 355.26 73.8 353.67 72.83 352.08 71.86 343.67 31.5 328 12.5 326.66 10.87 351.83 67.51 345.67 79.83 345.33 80.5 340.67 78.83 337 72.17 335.61 69.63 319.33 26.83 306 14.5 305.12 13.68 324.67 41.5 331.67 79.17 331.73 79.49 323.51 79.21 322.33 74.5 322 73.17 303 34.5 288 21.83 286.06 20.2 305 45.83 314.67 78.5 314.8 78.95 309.33 80.5 304 77.17 301.72 75.74 282.33 36.83 265.33 24.83 261.48 22.11 281.33 41.83 297.67 81.5 297.92 82.12 290.67 82.83 288.33 82.83 285.98 82.83 271 45.83 245.33 29.5 244.44 28.93 266 52.83 279.33 82.83 279.64 83.51 274.33 87.17 270 85.17 267.82 84.16 248.33 51.83 228.67 41.83 223.72 39.32 248 58.5 262.67 88.83 263.28 90.11 258.33 91.83 255.33 89.17 253.96 87.95 223.67 54.83 208 43.5 206.65 42.52 241.33 75.17 250 95.5 250.47 96.61 247.33 94.5 245.67 92.5 244.82 91.49 222.67 65.5 197 47.83 194.91 46.39 245.33 90.5 241.33 97.83 240.68 99.04 198.33 58.83 181 52.17 179.44 51.57 216.33 76.83 234 100.17 234.57 100.92 229.67 101.17 226 98.17 224.4 96.86 185 61.83 173.33 60.5 172.59 60.42 187.33 65.5 226 104.17 227.51 105.68 221.67 106.5 216 100.83 214.14 98.97 180.67 74.5 159.33 67.17 157.42 66.51 206.33 94.83 217 107.83 222.53 114.58 215.33 110.5 212 107.83 211.02 107.05 182.33 89.5 148.33 75.17 147.23 74.7 198.33 100.17 214.67 115.83 215.87 116.99 209.89 115.81 208.33 115.5 206.78 115.19 182.67 101.5 143 88.5 141.07 87.87 187.33 106.17 201.67 118.5 203.2 119.82 158.67 104.5 145.33 103.17 143.55 102.99 200.67 118.5 196 122.83 191.33 127.17 161.67 119.83 159 119.83 156.33 119.83 194 127.5 191.33 128.5 188.67 129.5 178.67 130.17 159.33 129.17 151.34 128.75 184.35 132.18 191 134.83 192.67 135.5 191.67 137.83 191.67 137.83 191.67 137.83 160 135.83 156 135.17 154.81 134.97 198 139.5 198 139.5 198 139.5 211 117.5 240.33 106.17 243.05 105.12 242 99 249.5 100.5 252.14 101.03 250.5 95 257 96.5M 300.67 306.17 C 300.67 306.17 300.17 290.17 297.67 278.17 297.26 276.21 284.67 316.67 274.67 320.67 272.3 321.61 283.67 312.67 291.67 276.17 292.31 273.24 286.67 273.67 283.17 274.67 281.09 275.26 279.67 298.67 240.17 326.67 238.13 328.11 274.17 290.17 274.67 277.67 274.77 275.17 270.17 273.67 266.17 277.17 265.03 278.16 229.5 322.5 216.5 325.5 213.66 326.16 231.5 313.5 261 272.5 262.7 270.13 231 303.5 201 322 199.72 322.79 217 307 253.5 268.5 254.27 267.69 218.5 299 187.5 316.5 184.58 318.15 219 289 243.5 266.5 246.38 263.86 192.48 304.21 173 312 170.5 313 226.5 278.5 235.5 263.5 236.79 261.36 184.5 300 162 303.5 158.4 304.06 221 272 225 260 226.27 256.18 173.01 290.33 153.5 292.5 149 293 204 270 215.5 257.5 217.64 255.17 185 276.5 151 279 147.97 279.22 198 264 210.5 252.5 212.34 250.81 166.98 265.5 152 265.5 151 265.5 199.5 251.5 205.5 245 206.9 243.49 180 253.5 158 253 154.96 252.93 188 249.5 200 241 201.68 239.81 176 243.5 165.5 241.5 165.01 241.41 195.5 239 195.5 239 L 169.5 236.5M 107.33 151.33 C 107.33 151.33 58.33 115.33 37.33 109 34.76 108.22 54 115.33 103 150 104.96 151.39 66 126.67 29.67 112.33 27.86 111.62 75 134.67 98.33 152.33 98.93 152.78 48 124.67 23.33 118 22.17 117.69 65 136 93 154 94.4 154.9 41.67 132 18 127 17.27 126.85 81 151.67 90.33 158.67 91.77 159.74 45.33 143 18.33 140 16.01 139.74 69.67 156 81.67 161.67 84.38 162.95 41 153.33 22.33 153.67 20.67 153.7 79 166.33 90.33 170.67 91.21 171 40.64 165.33 24 165.33 23.33 165.33 82.67 174.67 89.67 176.67 91.69 177.25 48.32 177.75 29 175.33 27.35 175.13 58 179.67 69.67 180.33 81.33 181 86.32 183.9 91.67 184.67 107.35 186.91 68 185 37.67 187 35.31 187.16 69 192 95.33 192 95.8 192 93.67 193.67 93.67 193.67 93.67 193.67 48 195.67 33 198.33 30.37 198.8 74.67 197.33 90.67 198.67 93.67 198.92 74.33 202 68 204.33 62.52 206.35 42.67 206.67 25 211 23.55 211.36 58.33 209.33 78.67 206.67 80.03 206.49 86 207 89.67 205.67 92.26 204.72 70.06 211.99 63.33 213.33 61.67 213.67 46.33 217.33 17 226.67 15.69 227.08 51.67 222 64 217.33 75.2 213.09 85 213.33 93.67 211 94.58 210.75 75 217 68.67 220.67 62.21 224.41 59.67 224 19.67 241.33 18.41 241.88 52 231.67 67 225.67 69.36 224.72 80.67 220.67 92.33 217 93.64 216.59 72.67 229.33 65 234.67 62.92 236.12 59.33 236.67 25.67 254.33 24.16 255.12 83 229 94.33 224 95.25 223.6 30.67 264.33 30.67 264.33 L 100 226 46 264.33 102 228.67 C 102 228.67 104.25 229.92 105 230.33 105.75 230.75 66.67 257 45.33 266.33"/><path fill="#000" transform="scale(1.0666667)" d="M 487.33 171.33 C 489 167.67 496.33 154.33 516 164.67 519.44 166.47 530.18 183.41 514.33 191.33 513 192 497 197 488 182.67 486.48 180.24 485.67 175 487.33 171.33 ZM 492 176.67 C 492 183.54 497.63 189.17 504.5 189.17 511.38 189.17 517 183.54 517 176.67 517 169.79 511.38 164.17 504.5 164.17 497.63 164.17 492 169.79 492 176.67 ZM 504.17 165.5 C 509.76 165.5 514.33 170.08 514.33 175.67 514.33 181.26 509.76 185.83 504.17 185.83 498.58 185.83 494 181.26 494 175.67 494 170.08 498.58 165.5 504.17 165.5 ZM 420.33 160 C 417 157.33 409.67 152.33 405.67 155 402.22 157.3 393.67 170.67 409 178.67 414.3 181.43 406.14 179.14 418 191 419 192 413.7 180.73 417.33 174.67 418.33 173 421.16 160.66 420.33 160 ZM 531 171.33 C 530.21 172.72 529.33 176 535.67 176.33 536.14 176.36 532.33 169 531 171.33 Z"/><path fill="#fff" transform="scale(1.0666667)" d="M 501 168 C 502.65 168 504 169.35 504 171 504 172.65 502.65 174 501 174 499.35 174 498 172.65 498 171 498 169.35 499.35 168 501 168 ZM 515 166.75 C 518.36 168.88 511.25 161.25 499.75 162.25 495.79 162.59 493.75 167.25 493.75 167.25 493.75 167.25 502 158.5 515 166.75 ZM 285 103 C 285 103 384 71 443.5 112 444.47 112.67 455 130.5 462 121 464.1 118.15 452.51 113.39 446.5 109.5 382.5 68 285 103 285 103 Z"/></g></g></svg>